<svg width="3014" height="1044" xmlns="http://www.w3.org/2000/svg" xmlns:xlink="http://www.w3.org/1999/xlink" xml:space="preserve" overflow="hidden"><g transform="translate(-767 -686)"><path d="M770.5 936.003C770.5 863.928 828.928 805.5 901.003 805.5L2111 805.5C2183.07 805.5 2241.5 863.928 2241.5 936.003L2241.5 1458C2241.5 1530.07 2183.07 1588.5 2111 1588.5L901.003 1588.5C828.928 1588.5 770.5 1530.07 770.5 1458Z" stroke="#042433" stroke-width="6.875" stroke-miterlimit="8" fill="#F2F2F2" fill-rule="evenodd"/><path d="M2258.5 936.003C2258.5 863.928 2316.93 805.5 2389 805.5L3598 805.5C3670.07 805.5 3728.5 863.928 3728.5 936.003L3728.5 1458C3728.5 1530.07 3670.07 1588.5 3598 1588.5L2389 1588.5C2316.93 1588.5 2258.5 1530.07 2258.5 1458Z" stroke="#042433" stroke-width="6.875" stroke-miterlimit="8" fill="#F2F2F2" fill-rule="evenodd"/><path d="M961 1398 1474 1398 1474 890 961 890Z" fill="#FFFFFF" fill-rule="evenodd"/><path d="M984 1398 984 890" stroke="#B0B0B0" stroke-width="3.66667" stroke-linecap="square" stroke-linejoin="round" stroke-miterlimit="10" fill="none" fill-rule="evenodd"/><path d="M984.009 1398.05 984.009 1414.05" stroke="#000000" stroke-width="3.66667" stroke-linejoin="round" stroke-miterlimit="10" fill="none" fill-rule="evenodd"/><path d="M1217 1398 1217 890" stroke="#B0B0B0" stroke-width="3.66667" stroke-linecap="square" stroke-linejoin="round" stroke-miterlimit="10" fill="none" fill-rule="evenodd"/><path d="M1217.03 1398.05 1217.03 1414.05" stroke="#000000" stroke-width="3.66667" stroke-linejoin="round" stroke-miterlimit="10" fill="none" fill-rule="evenodd"/><path d="M1451 1398 1451 890" stroke="#B0B0B0" stroke-width="3.66667" stroke-linecap="square" stroke-linejoin="round" stroke-miterlimit="10" fill="none" fill-rule="evenodd"/><path d="M1451.04 1398.05 1451.04 1414.05" stroke="#000000" stroke-width="3.66667" stroke-linejoin="round" stroke-miterlimit="10" fill="none" fill-rule="evenodd"/><path d="M961 1356 1474 1356" stroke="#B0B0B0" stroke-width="3.66667" stroke-linecap="square" stroke-linejoin="round" stroke-miterlimit="10" fill="none" fill-rule="evenodd"/><path d="M961.007 1356.04 948.007 1356.04" stroke="#000000" stroke-width="3.66667" stroke-linejoin="round" stroke-miterlimit="10" fill="none" fill-rule="evenodd"/><path d="M961 1144 1474 1144" stroke="#B0B0B0" stroke-width="3.66667" stroke-linecap="square" stroke-linejoin="round" stroke-miterlimit="10" fill="none" fill-rule="evenodd"/><path d="M961.007 1144.02 948.007 1144.02" stroke="#000000" stroke-width="3.66667" stroke-linejoin="round" stroke-miterlimit="10" fill="none" fill-rule="evenodd"/><path d="M961 932 1474 932" stroke="#B0B0B0" stroke-width="3.66667" stroke-linecap="square" stroke-linejoin="round" stroke-miterlimit="10" fill="none" fill-rule="evenodd"/><path d="M961.007 932.01 948.007 932.01" stroke="#000000" stroke-width="3.66667" stroke-linejoin="round" stroke-miterlimit="10" fill="none" fill-rule="evenodd"/><path d="M984.5 1372.5 1218 1095.47 1451.5 965.5" stroke="#000000" stroke-width="6.875" stroke-linecap="square" stroke-linejoin="round" stroke-miterlimit="10" fill="none" fill-rule="evenodd"/><path d="M984.508 1385.54C987.426 1385.54 990.224 1384.12 992.287 1381.59 994.349 1379.06 995.508 1375.62 995.508 1372.04 995.508 1368.46 994.349 1365.03 992.287 1362.5 990.224 1359.97 987.426 1358.54 984.508 1358.54 981.591 1358.54 978.793 1359.97 976.73 1362.5 974.667 1365.03 973.508 1368.46 973.508 1372.04 973.508 1375.62 974.667 1379.06 976.73 1381.59 978.793 1384.12 981.591 1385.54 984.508 1385.54Z" stroke="#000000" stroke-width="4.58333" stroke-linejoin="round" stroke-miterlimit="10" fill-rule="evenodd"/><path d="M1217.53 1109.52C1220.44 1109.52 1223.24 1108.05 1225.3 1105.42 1227.37 1102.8 1228.53 1099.24 1228.53 1095.52 1228.53 1091.81 1227.37 1088.25 1225.3 1085.62 1223.24 1083 1220.44 1081.52 1217.53 1081.52 1214.61 1081.52 1211.81 1083 1209.75 1085.62 1207.69 1088.25 1206.53 1091.81 1206.53 1095.52 1206.53 1099.24 1207.69 1102.8 1209.75 1105.42 1211.81 1108.05 1214.61 1109.52 1217.53 1109.52Z" stroke="#000000" stroke-width="4.58333" stroke-linejoin="round" stroke-miterlimit="10" fill-rule="evenodd"/><path d="M1451.55 979.512C1454.46 979.512 1457.26 978.037 1459.32 975.412 1461.39 972.786 1462.55 969.225 1462.55 965.512 1462.55 961.799 1461.39 958.238 1459.32 955.613 1457.26 952.987 1454.46 951.513 1451.55 951.513 1448.63 951.513 1445.83 952.987 1443.77 955.613 1441.7 958.238 1440.55 961.799 1440.55 965.512 1440.55 969.225 1441.7 972.786 1443.77 975.412 1445.83 978.037 1448.63 979.512 1451.55 979.512Z" stroke="#000000" stroke-width="4.58333" stroke-linejoin="round" stroke-miterlimit="10" fill-rule="evenodd"/><path d="M984.5 1142.5 1217.5 1022.5" stroke="#0000FF" stroke-width="6.875" stroke-linecap="square" stroke-linejoin="round" stroke-miterlimit="10" fill="none" fill-rule="evenodd"/><path d="M971.508 1125.53 975.316 1142.03 971.508 1158.53 984.508 1153.69 997.508 1158.53 993.701 1142.03 997.508 1125.53 984.508 1130.36Z" stroke="#0000FF" stroke-width="4.58333" stroke-linejoin="bevel" stroke-miterlimit="10" fill="#0000FF" fill-rule="evenodd"/><path d="M1204.53 1006.52 1208.33 1023.02 1204.53 1039.52 1217.53 1034.68 1230.53 1039.52 1226.72 1023.02 1230.53 1006.52 1217.53 1011.35Z" stroke="#0000FF" stroke-width="4.58333" stroke-linejoin="bevel" stroke-miterlimit="10" fill="#0000FF" fill-rule="evenodd"/><path d="M961 1398 961 890" stroke="#000000" stroke-width="3.66667" stroke-linecap="square" stroke-miterlimit="8" fill="none" fill-rule="evenodd"/><path d="M1474 1398 1474 890" stroke="#000000" stroke-width="3.66667" stroke-linecap="square" stroke-miterlimit="8" fill="none" fill-rule="evenodd"/><path d="M961 1398 1474 1398" stroke="#000000" stroke-width="3.66667" stroke-linecap="square" stroke-miterlimit="8" fill="none" fill-rule="evenodd"/><path d="M961 890 1474 890" stroke="#000000" stroke-width="3.66667" stroke-linecap="square" stroke-miterlimit="8" fill="none" fill-rule="evenodd"/><text font-family="Book Antiqua,Book Antiqua_MSFontService,sans-serif" font-weight="400" font-size="55" transform="matrix(1 0 0 1 1405.79 1470)">256</text><text font-family="Book Antiqua,Book Antiqua_MSFontService,sans-serif" font-weight="400" font-size="37" transform="matrix(1 0 0 1 1488.29 1453)">2</text><text font-family="Book Antiqua,Book Antiqua_MSFontService,sans-serif" font-weight="400" font-size="55" transform="matrix(1 0 0 1 976.82 874)">Image classification</text><text font-family="Book Antiqua,Book Antiqua_MSFontService,sans-serif" font-weight="400" font-size="55" transform="matrix(1 0 0 1 882.318 1373)">25</text><text font-family="Book Antiqua,Book Antiqua_MSFontService,sans-serif" font-weight="400" font-size="55" transform="matrix(1 0 0 1 882.362 946)">75</text><text font-family="Book Antiqua,Book Antiqua_MSFontService,sans-serif" font-weight="400" font-size="55" transform="matrix(-1.83697e-16 -1 1 -1.83697e-16 845.227 1305)">Accuracy (%)</text><text font-family="Book Antiqua,Book Antiqua_MSFontService,sans-serif" font-weight="400" font-size="55" transform="matrix(1 0 0 1 948.892 1470)">64</text><text font-family="Book Antiqua,Book Antiqua_MSFontService,sans-serif" font-weight="400" font-size="37" transform="matrix(1 0 0 1 1003.89 1453)">2</text><text font-family="Book Antiqua,Book Antiqua_MSFontService,sans-serif" font-weight="400" font-size="55" transform="matrix(1 0 0 1 1171.74 1470)">128</text><text font-family="Book Antiqua,Book Antiqua_MSFontService,sans-serif" font-weight="400" font-size="37" transform="matrix(1 0 0 1 1254.24 1453)">2</text><text font-family="Book Antiqua,Book Antiqua_MSFontService,sans-serif" font-weight="400" font-size="55" transform="matrix(1 0 0 1 1029.7 1542)">Resolution (px)</text><text font-family="Book Antiqua,Book Antiqua_MSFontService,sans-serif" font-weight="400" font-size="55" transform="matrix(1 0 0 1 879.881 1158)">50</text><path d="M2444 1400 2958 1400 2958 892 2444 892Z" fill="#FFFFFF" fill-rule="evenodd"/><path d="M2468 1400 2468 892" stroke="#B0B0B0" stroke-width="3.66667" stroke-linecap="square" stroke-linejoin="round" stroke-miterlimit="10" fill="none" fill-rule="evenodd"/><path d="M2468.01 1400.05 2468.01 1416.05" stroke="#000000" stroke-width="3.66667" stroke-linejoin="round" stroke-miterlimit="10" fill="none" fill-rule="evenodd"/><path d="M2701 1400 2701 892" stroke="#B0B0B0" stroke-width="3.66667" stroke-linecap="square" stroke-linejoin="round" stroke-miterlimit="10" fill="none" fill-rule="evenodd"/><path d="M2701.03 1400.05 2701.03 1416.05" stroke="#000000" stroke-width="3.66667" stroke-linejoin="round" stroke-miterlimit="10" fill="none" fill-rule="evenodd"/><path d="M2934 1400 2934 892" stroke="#B0B0B0" stroke-width="3.66667" stroke-linecap="square" stroke-linejoin="round" stroke-miterlimit="10" fill="none" fill-rule="evenodd"/><path d="M2934.05 1400.05 2934.05 1416.05" stroke="#000000" stroke-width="3.66667" stroke-linejoin="round" stroke-miterlimit="10" fill="none" fill-rule="evenodd"/><path d="M2444 1283 2958 1283" stroke="#B0B0B0" stroke-width="3.66667" stroke-linecap="square" stroke-linejoin="round" stroke-miterlimit="10" fill="none" fill-rule="evenodd"/><path d="M2444.01 1283.04 2431.01 1283.04" stroke="#000000" stroke-width="3.66667" stroke-linejoin="round" stroke-miterlimit="10" fill="none" fill-rule="evenodd"/><path d="M2444 1088 2958 1088" stroke="#B0B0B0" stroke-width="3.66667" stroke-linecap="square" stroke-linejoin="round" stroke-miterlimit="10" fill="none" fill-rule="evenodd"/><path d="M2444.01 1088.02 2431.01 1088.02" stroke="#000000" stroke-width="3.66667" stroke-linejoin="round" stroke-miterlimit="10" fill="none" fill-rule="evenodd"/><path d="M2444 892 2958 892" stroke="#B0B0B0" stroke-width="3.66667" stroke-linecap="square" stroke-linejoin="round" stroke-miterlimit="10" fill="none" fill-rule="evenodd"/><path d="M2444.01 892.007 2431.01 892.007" stroke="#000000" stroke-width="3.66667" stroke-linejoin="round" stroke-miterlimit="10" fill="none" fill-rule="evenodd"/><path d="M2468.5 1377.5 2701.5 1154.81 2934.5 1116.5" stroke="#000000" stroke-width="6.875" stroke-linecap="square" stroke-linejoin="round" stroke-miterlimit="10" fill="none" fill-rule="evenodd"/><path d="M2468.51 1391.55C2471.43 1391.55 2474.22 1390.07 2476.29 1387.44 2478.35 1384.82 2479.51 1381.26 2479.51 1377.55 2479.51 1373.83 2478.35 1370.27 2476.29 1367.65 2474.22 1365.02 2471.43 1363.55 2468.51 1363.55 2465.59 1363.55 2462.79 1365.02 2460.73 1367.65 2458.67 1370.27 2457.51 1373.83 2457.51 1377.55 2457.51 1381.26 2458.67 1384.82 2460.73 1387.44 2462.79 1390.07 2465.59 1391.55 2468.51 1391.55Z" stroke="#000000" stroke-width="4.58333" stroke-linejoin="round" stroke-miterlimit="10" fill-rule="evenodd"/><path d="M2701.53 1168.53C2704.44 1168.53 2707.24 1167.1 2709.3 1164.57 2711.37 1162.04 2712.53 1158.61 2712.53 1155.03 2712.53 1151.45 2711.37 1148.01 2709.3 1145.48 2707.24 1142.95 2704.44 1141.53 2701.53 1141.53 2698.61 1141.53 2695.81 1142.95 2693.75 1145.48 2691.69 1148.01 2690.53 1151.45 2690.53 1155.03 2690.53 1158.61 2691.69 1162.04 2693.75 1164.57 2695.81 1167.1 2698.61 1168.53 2701.53 1168.53Z" stroke="#000000" stroke-width="4.58333" stroke-linejoin="round" stroke-miterlimit="10" fill-rule="evenodd"/><path d="M2935.05 1130.52C2938.1 1130.52 2941.02 1129.05 2943.18 1126.42 2945.34 1123.8 2946.55 1120.24 2946.55 1116.52 2946.55 1112.81 2945.34 1109.25 2943.18 1106.62 2941.02 1104 2938.1 1102.52 2935.05 1102.52 2932 1102.52 2929.07 1104 2926.92 1106.62 2924.76 1109.25 2923.55 1112.81 2923.55 1116.52 2923.55 1120.24 2924.76 1123.8 2926.92 1126.42 2929.07 1129.05 2932 1130.52 2935.05 1130.52Z" stroke="#000000" stroke-width="4.58333" stroke-linejoin="round" stroke-miterlimit="10" fill-rule="evenodd"/><path d="M2701.5 1099.5 2934.5 957.5" stroke="#0000FF" stroke-width="6.875" stroke-linecap="square" stroke-linejoin="round" stroke-miterlimit="10" fill="none" fill-rule="evenodd"/><path d="M2688.53 1083.52 2692.33 1100.02 2688.53 1116.52 2701.53 1111.69 2714.53 1116.52 2710.72 1100.02 2714.53 1083.52 2701.53 1088.36Z" stroke="#0000FF" stroke-width="4.58333" stroke-linejoin="bevel" stroke-miterlimit="10" fill="#0000FF" fill-rule="evenodd"/><path d="M2921.55 941.511 2925.35 957.511 2921.55 973.511 2934.55 968.825 2947.55 973.511 2943.74 957.511 2947.55 941.511 2934.55 946.198Z" stroke="#0000FF" stroke-width="4.58333" stroke-linejoin="bevel" stroke-miterlimit="10" fill="#0000FF" fill-rule="evenodd"/><path d="M2444 1400 2444 892" stroke="#000000" stroke-width="3.66667" stroke-linecap="square" stroke-miterlimit="8" fill="none" fill-rule="evenodd"/><path d="M2958 1400 2958 892" stroke="#000000" stroke-width="3.66667" stroke-linecap="square" stroke-miterlimit="8" fill="none" fill-rule="evenodd"/><path d="M2444 1400 2958 1400" stroke="#000000" stroke-width="3.66667" stroke-linecap="square" stroke-miterlimit="8" fill="none" fill-rule="evenodd"/><path d="M2444 892 2958 892" stroke="#000000" stroke-width="3.66667" stroke-linecap="square" stroke-miterlimit="8" fill="none" fill-rule="evenodd"/><text font-family="Book Antiqua,Book Antiqua_MSFontService,sans-serif" font-weight="400" font-size="55" transform="matrix(1 0 0 1 2348.64 911)">3.0</text><text font-family="Book Antiqua,Book Antiqua_MSFontService,sans-serif" font-weight="400" font-size="55" transform="matrix(1 0 0 1 2350.02 1299)">2.0</text><text font-family="Book Antiqua,Book Antiqua_MSFontService,sans-serif" font-weight="400" font-size="55" transform="matrix(1 0 0 1 2348.64 1105)">2.5</text><text font-family="Book Antiqua,Book Antiqua_MSFontService,sans-serif" font-weight="400" font-size="55" transform="matrix(1 0 0 1 2883.84 1471)">512</text><text font-family="Book Antiqua,Book Antiqua_MSFontService,sans-serif" font-weight="400" font-size="37" transform="matrix(1 0 0 1 2966.34 1454)">2</text><text font-family="Book Antiqua,Book Antiqua_MSFontService,sans-serif" font-weight="400" font-size="55" transform="matrix(1 0 0 1 2416.17 1471)">128</text><text font-family="Book Antiqua,Book Antiqua_MSFontService,sans-serif" font-weight="400" font-size="37" transform="matrix(1 0 0 1 2498.67 1454)">2</text><text font-family="Book Antiqua,Book Antiqua_MSFontService,sans-serif" font-weight="400" font-size="55" transform="matrix(1 0 0 1 2650.93 1468)">256</text><text font-family="Book Antiqua,Book Antiqua_MSFontService,sans-serif" font-weight="400" font-size="37" transform="matrix(1 0 0 1 2733.43 1451)">2</text><text font-family="Book Antiqua,Book Antiqua_MSFontService,sans-serif" font-weight="400" font-size="55" transform="matrix(1 0 0 1 2514.3 1545)">Resolution (px)</text><text font-family="Book Antiqua,Book Antiqua_MSFontService,sans-serif" font-weight="400" font-size="55" transform="matrix(-1.83697e-16 -1 1 -1.83697e-16 2323.64 1309)">LPIPS (dB) </text><path d="M2283.87 1017.6 2283.87 1015.74 2293.86 1005.94 2295.55 1007.53 2289.86 1014.75 2324.07 1014.75 2324.07 1018.56 2289.86 1018.56 2295.55 1025.79 2293.86 1027.37Z" fill-rule="evenodd"/><text fill="#000000" fill-opacity="0" font-family="Arial,Arial_MSFontService,sans-serif" font-size="21.4307" x="2283.87" y="1024.69">↑</text><text font-family="Book Antiqua,Book Antiqua_MSFontService,sans-serif" font-weight="400" font-size="55" transform="matrix(1 0 0 1 2476.64 872)">Image colorization</text><path d="M1670 1401 2183 1401 2183 893 1670 893Z" fill="#FFFFFF" fill-rule="evenodd"/><path d="M1693 1401 1693 893" stroke="#B0B0B0" stroke-width="3.66667" stroke-linecap="square" stroke-linejoin="round" stroke-miterlimit="10" fill="none" fill-rule="evenodd"/><path d="M1693.01 1401.05 1693.01 1417.05" stroke="#000000" stroke-width="3.66667" stroke-linejoin="round" stroke-miterlimit="10" fill="none" fill-rule="evenodd"/><path d="M1926 1401 1926 893" stroke="#B0B0B0" stroke-width="3.66667" stroke-linecap="square" stroke-linejoin="round" stroke-miterlimit="10" fill="none" fill-rule="evenodd"/><path d="M1926.03 1401.05 1926.03 1417.05" stroke="#000000" stroke-width="3.66667" stroke-linejoin="round" stroke-miterlimit="10" fill="none" fill-rule="evenodd"/><path d="M2160 1401 2160 893" stroke="#B0B0B0" stroke-width="3.66667" stroke-linecap="square" stroke-linejoin="round" stroke-miterlimit="10" fill="none" fill-rule="evenodd"/><path d="M2160.04 1401.05 2160.04 1417.05" stroke="#000000" stroke-width="3.66667" stroke-linejoin="round" stroke-miterlimit="10" fill="none" fill-rule="evenodd"/><path d="M1670 1381 2183 1381" stroke="#B0B0B0" stroke-width="3.66667" stroke-linecap="square" stroke-linejoin="round" stroke-miterlimit="10" fill="none" fill-rule="evenodd"/><path d="M1670.01 1381.04 1657.01 1381.04" stroke="#000000" stroke-width="3.66667" stroke-linejoin="round" stroke-miterlimit="10" fill="none" fill-rule="evenodd"/><path d="M1670 1178 2183 1178" stroke="#B0B0B0" stroke-width="3.66667" stroke-linecap="square" stroke-linejoin="round" stroke-miterlimit="10" fill="none" fill-rule="evenodd"/><path d="M1670.01 1178.02 1657.01 1178.02" stroke="#000000" stroke-width="3.66667" stroke-linejoin="round" stroke-miterlimit="10" fill="none" fill-rule="evenodd"/><path d="M1670 974 2183 974" stroke="#B0B0B0" stroke-width="3.66667" stroke-linecap="square" stroke-linejoin="round" stroke-miterlimit="10" fill="none" fill-rule="evenodd"/><path d="M1670.01 974.014 1657.01 974.014" stroke="#000000" stroke-width="3.66667" stroke-linejoin="round" stroke-miterlimit="10" fill="none" fill-rule="evenodd"/><path d="M1693.5 1343.5 1927 994.658 2160.5 925.5" stroke="#000000" stroke-width="6.875" stroke-linecap="square" stroke-linejoin="round" stroke-miterlimit="10" fill="none" fill-rule="evenodd"/><path d="M1693.51 1357.54C1696.43 1357.54 1699.22 1356.07 1701.29 1353.44 1703.35 1350.82 1704.51 1347.26 1704.51 1343.54 1704.51 1339.83 1703.35 1336.27 1701.29 1333.64 1699.22 1331.02 1696.43 1329.54 1693.51 1329.54 1690.59 1329.54 1687.79 1331.02 1685.73 1333.64 1683.67 1336.27 1682.51 1339.83 1682.51 1343.54 1682.51 1347.26 1683.67 1350.82 1685.73 1353.44 1687.79 1356.07 1690.59 1357.54 1693.51 1357.54Z" stroke="#000000" stroke-width="4.58333" stroke-linejoin="round" stroke-miterlimit="10" fill-rule="evenodd"/><path d="M1926.53 1008.51C1929.44 1008.51 1932.24 1007.09 1934.3 1004.56 1936.37 1002.03 1937.53 998.594 1937.53 995.014 1937.53 991.434 1936.37 987.999 1934.3 985.468 1932.24 982.936 1929.44 981.514 1926.53 981.514 1923.61 981.514 1920.81 982.936 1918.75 985.468 1916.69 987.999 1915.53 991.434 1915.53 995.014 1915.53 998.594 1916.69 1002.03 1918.75 1004.56 1920.81 1007.09 1923.61 1008.51 1926.53 1008.51Z" stroke="#000000" stroke-width="4.58333" stroke-linejoin="round" stroke-miterlimit="10" fill-rule="evenodd"/><path d="M2160.54 939.508C2163.46 939.508 2166.26 938.086 2168.32 935.555 2170.39 933.023 2171.54 929.589 2171.54 926.009 2171.54 922.428 2170.39 918.994 2168.32 916.463 2166.26 913.931 2163.46 912.509 2160.54 912.509 2157.63 912.509 2154.83 913.931 2152.77 916.463 2150.7 918.994 2149.54 922.428 2149.54 926.009 2149.54 929.589 2150.7 933.023 2152.77 935.555 2154.83 938.086 2157.63 939.508 2160.54 939.508Z" stroke="#000000" stroke-width="4.58333" stroke-linejoin="round" stroke-miterlimit="10" fill-rule="evenodd"/><path d="M1693.5 963.5 1926.5 933.5" stroke="#0000FF" stroke-width="6.875" stroke-linecap="square" stroke-linejoin="round" stroke-miterlimit="10" fill="none" fill-rule="evenodd"/><path d="M1680.51 947.512 1684.32 963.512 1680.51 979.512 1693.51 974.825 1706.51 979.512 1702.7 963.512 1706.51 947.512 1693.51 952.198Z" stroke="#0000FF" stroke-width="4.58333" stroke-linejoin="bevel" stroke-miterlimit="10" fill="#0000FF" fill-rule="evenodd"/><path d="M1913.53 916.51 1917.33 933.01 1913.53 949.51 1926.53 944.677 1939.53 949.51 1935.72 933.01 1939.53 916.51 1926.53 921.342Z" stroke="#0000FF" stroke-width="4.58333" stroke-linejoin="bevel" stroke-miterlimit="10" fill="#0000FF" fill-rule="evenodd"/><path d="M1670 1401 1670 893" stroke="#000000" stroke-width="3.66667" stroke-linecap="square" stroke-miterlimit="8" fill="none" fill-rule="evenodd"/><path d="M2183 1401 2183 893" stroke="#000000" stroke-width="3.66667" stroke-linecap="square" stroke-miterlimit="8" fill="none" fill-rule="evenodd"/><path d="M1670 1401 2183 1401" stroke="#000000" stroke-width="3.66667" stroke-linecap="square" stroke-miterlimit="8" fill="none" fill-rule="evenodd"/><path d="M1670 893 2183 893" stroke="#000000" stroke-width="3.66667" stroke-linecap="square" stroke-miterlimit="8" fill="none" fill-rule="evenodd"/><text font-family="Book Antiqua,Book Antiqua_MSFontService,sans-serif" font-weight="400" font-size="55" transform="matrix(1 0 0 1 1698.28 872)">Document analysis</text><text font-family="Book Antiqua,Book Antiqua_MSFontService,sans-serif" font-weight="400" font-size="55" transform="matrix(-1.83697e-16 -1 1 -1.83697e-16 1568.06 1363)">Accuracy (ANLS)</text><text font-family="Book Antiqua,Book Antiqua_MSFontService,sans-serif" font-weight="400" font-size="55" transform="matrix(1 0 0 1 2109.4 1471)">896</text><text font-family="Book Antiqua,Book Antiqua_MSFontService,sans-serif" font-weight="400" font-size="37" transform="matrix(1 0 0 1 2191.9 1454)">2</text><text font-family="Book Antiqua,Book Antiqua_MSFontService,sans-serif" font-weight="400" font-size="55" transform="matrix(1 0 0 1 1644.08 1471)">224</text><text font-family="Book Antiqua,Book Antiqua_MSFontService,sans-serif" font-weight="400" font-size="37" transform="matrix(1 0 0 1 1726.58 1454)">2</text><text font-family="Book Antiqua,Book Antiqua_MSFontService,sans-serif" font-weight="400" font-size="55" transform="matrix(1 0 0 1 1877.68 1470)">448</text><text font-family="Book Antiqua,Book Antiqua_MSFontService,sans-serif" font-weight="400" font-size="37" transform="matrix(1 0 0 1 1960.18 1453)">2</text><text font-family="Book Antiqua,Book Antiqua_MSFontService,sans-serif" font-weight="400" font-size="55" transform="matrix(1 0 0 1 1740.31 1545)">Resolution (px)</text><text font-family="Book Antiqua,Book Antiqua_MSFontService,sans-serif" font-weight="400" font-size="55" transform="matrix(1 0 0 1 1593.1 993)">80</text><text font-family="Book Antiqua,Book Antiqua_MSFontService,sans-serif" font-weight="400" font-size="55" transform="matrix(1 0 0 1 1593.12 1397)">40</text><text font-family="Book Antiqua,Book Antiqua_MSFontService,sans-serif" font-weight="400" font-size="55" transform="matrix(1 0 0 1 1593.02 1195)">60</text><text font-family="Book Antiqua,Book Antiqua_MSFontService,sans-serif" font-weight="400" font-size="55" transform="matrix(1 0 0 1 3201.55 872)">Source separation</text><text font-family="Book Antiqua,Book Antiqua_MSFontService,sans-serif" font-weight="400" font-size="55" transform="matrix(-1.83697e-16 -1 1 -1.83697e-16 3057.69 1301)">PSNR (dB) </text><path d="M3017.92 1012.51 3017.92 1010.66 3027.91 1000.85 3029.6 1002.44 3023.91 1009.66 3058.12 1009.66 3058.12 1013.48 3023.91 1013.48 3029.6 1020.7 3027.91 1022.29Z" fill-rule="evenodd"/><text fill="#000000" fill-opacity="0" font-family="Arial,Arial_MSFontService,sans-serif" font-size="21.4307" x="3017.92" y="1019.61">↑</text><text font-family="Book Antiqua,Book Antiqua_MSFontService,sans-serif" font-weight="400" font-size="55" transform="matrix(1 0 0 1 3626.35 1472)">44</text><text font-family="Book Antiqua,Book Antiqua_MSFontService,sans-serif" font-weight="400" font-size="55" transform="matrix(1 0 0 1 3148.1 1471)">2.4</text><text font-family="Book Antiqua,Book Antiqua_MSFontService,sans-serif" font-weight="400" font-size="55" transform="matrix(1 0 0 1 3390.63 1470)">11</text><text font-family="Book Antiqua,Book Antiqua_MSFontService,sans-serif" font-weight="400" font-size="55" transform="matrix(1 0 0 1 3083.03 1099)">33</text><text font-family="Book Antiqua,Book Antiqua_MSFontService,sans-serif" font-weight="400" font-size="55" transform="matrix(1 0 0 1 3083.03 1226)">32</text><text font-family="Book Antiqua,Book Antiqua_MSFontService,sans-serif" font-weight="400" font-size="55" transform="matrix(1 0 0 1 3083.03 1352)">31</text><text font-family="Book Antiqua,Book Antiqua_MSFontService,sans-serif" font-weight="400" font-size="55" transform="matrix(1 0 0 1 3083.03 973)">34</text><text font-family="Book Antiqua,Book Antiqua_MSFontService,sans-serif" font-weight="400" font-size="55" transform="matrix(1 0 0 1 3174.34 1545)">Sampling rate (kHz) </text><text font-family="Book Antiqua,Book Antiqua_MSFontService,sans-serif" font-weight="400" font-size="73" transform="matrix(1 0 0 1 1123.23 777)">Discriminative modeling</text><path d="M1281.66 1707.5 3216.34 1707.5C3252.47 1707.5 3270.5 1705.34 3270.5 1701.01L3270.5 1608.99C3270.5 1604.66 3252.47 1602.5 3216.34 1602.5L1281.66 1602.5C1245.55 1602.5 1227.5 1604.66 1227.5 1608.99L1227.5 1701.01C1227.5 1705.34 1245.55 1707.5 1281.66 1707.5Z" stroke="#CCCCCC" stroke-width="4.58333" stroke-miterlimit="8" stroke-opacity="0.8" fill="#FFFFFF" fill-rule="evenodd" fill-opacity="0.8"/><path d="M1258.5 1652.5 1313 1652.5 1367.5 1652.5" stroke="#000000" stroke-width="6.875" stroke-linecap="square" stroke-linejoin="round" stroke-miterlimit="10" fill="none" fill-rule="evenodd"/><path d="M1317.04 1673.55C1321.41 1673.55 1325.61 1671.34 1328.7 1667.4 1331.8 1663.47 1333.54 1658.12 1333.54 1652.55 1333.54 1646.99 1331.8 1641.64 1328.7 1637.71 1325.61 1633.77 1321.41 1631.55 1317.04 1631.55 1312.66 1631.55 1308.46 1633.77 1305.37 1637.71 1302.28 1641.64 1300.54 1646.99 1300.54 1652.55 1300.54 1658.12 1302.28 1663.47 1305.37 1667.4 1308.46 1671.34 1312.66 1673.55 1317.04 1673.55Z" stroke="#000000" stroke-width="4.58333" stroke-linejoin="round" stroke-miterlimit="10" fill-rule="evenodd"/><path d="M2366.5 1662.5 2421 1662.5 2475.5 1662.5" stroke="#0000FF" stroke-width="6.875" stroke-linecap="square" stroke-linejoin="round" stroke-miterlimit="10" fill="none" fill-rule="evenodd"/><path d="M2405.54 1637.56 2411.25 1662.56 2405.54 1687.56 2425.04 1680.24 2444.54 1687.56 2438.83 1662.56 2444.54 1637.56 2425.04 1644.89Z" stroke="#0000FF" stroke-width="4.58333" stroke-linejoin="bevel" stroke-miterlimit="10" fill="#0000FF" fill-rule="evenodd"/><text font-family="Book Antiqua,Book Antiqua_MSFontService,sans-serif" font-weight="400" font-size="64" transform="matrix(1 0 0 1 1414.51 1674)">Resolution reduction (baseline)</text><text font-family="Book Antiqua,Book Antiqua_MSFontService,sans-serif" font-weight="400" font-size="64" transform="matrix(1 0 0 1 2523.43 1673)">Compression (WaLLoC)</text><text font-family="Book Antiqua,Book Antiqua_MSFontService,sans-serif" font-weight="400" font-size="73" transform="matrix(1 0 0 1 2683.48 777)">Signal enhancement</text><path d="M3162 1398 3677 1398 3677 890 3162 890Z" fill="#FFFFFF" fill-rule="evenodd"/><path d="M3185 1398 3185 890" stroke="#B0B0B0" stroke-width="3.66667" stroke-linecap="square" stroke-linejoin="round" stroke-miterlimit="10" fill="none" fill-rule="evenodd"/><path d="M3185.01 1398.05 3185.01 1414.05" stroke="#000000" stroke-width="3.66667" stroke-linejoin="round" stroke-miterlimit="10" fill="none" fill-rule="evenodd"/><path d="M3419 1398 3419 890" stroke="#B0B0B0" stroke-width="3.66667" stroke-linecap="square" stroke-linejoin="round" stroke-miterlimit="10" fill="none" fill-rule="evenodd"/><path d="M3419.03 1398.05 3419.03 1414.05" stroke="#000000" stroke-width="3.66667" stroke-linejoin="round" stroke-miterlimit="10" fill="none" fill-rule="evenodd"/><path d="M3654 1398 3654 890" stroke="#B0B0B0" stroke-width="3.66667" stroke-linecap="square" stroke-linejoin="round" stroke-miterlimit="10" fill="none" fill-rule="evenodd"/><path d="M3654.04 1398.05 3654.04 1414.05" stroke="#000000" stroke-width="3.66667" stroke-linejoin="round" stroke-miterlimit="10" fill="none" fill-rule="evenodd"/><path d="M3162 1334 3677 1334" stroke="#B0B0B0" stroke-width="3.66667" stroke-linecap="square" stroke-linejoin="round" stroke-miterlimit="10" fill="none" fill-rule="evenodd"/><path d="M3162.01 1334.05 3149.01 1334.05" stroke="#000000" stroke-width="3.66667" stroke-linejoin="round" stroke-miterlimit="10" fill="none" fill-rule="evenodd"/><path d="M3162 1207 3677 1207" stroke="#B0B0B0" stroke-width="3.66667" stroke-linecap="square" stroke-linejoin="round" stroke-miterlimit="10" fill="none" fill-rule="evenodd"/><path d="M3162.01 1207.03 3149.01 1207.03" stroke="#000000" stroke-width="3.66667" stroke-linejoin="round" stroke-miterlimit="10" fill="none" fill-rule="evenodd"/><path d="M3162 1080 3677 1080" stroke="#B0B0B0" stroke-width="3.66667" stroke-linecap="square" stroke-linejoin="round" stroke-miterlimit="10" fill="none" fill-rule="evenodd"/><path d="M3162.01 1080.02 3149.01 1080.02" stroke="#000000" stroke-width="3.66667" stroke-linejoin="round" stroke-miterlimit="10" fill="none" fill-rule="evenodd"/><path d="M3162 953 3677 953" stroke="#B0B0B0" stroke-width="3.66667" stroke-linecap="square" stroke-linejoin="round" stroke-miterlimit="10" fill="none" fill-rule="evenodd"/><path d="M3162.01 953.012 3149.01 953.012" stroke="#000000" stroke-width="3.66667" stroke-linejoin="round" stroke-miterlimit="10" fill="none" fill-rule="evenodd"/><path d="M3185.5 1259.39 3420 1211.5 3654.5 1322.5" stroke="#000000" stroke-width="6.875" stroke-linecap="square" stroke-linejoin="round" stroke-miterlimit="10" fill="none" fill-rule="evenodd"/><path d="M3185.51 1273.54C3188.43 1273.54 3191.22 1272.06 3193.29 1269.44 3195.35 1266.81 3196.51 1263.25 3196.51 1259.54 3196.51 1255.82 3195.35 1252.26 3193.29 1249.64 3191.22 1247.01 3188.43 1245.54 3185.51 1245.54 3182.59 1245.54 3179.79 1247.01 3177.73 1249.64 3175.67 1252.26 3174.51 1255.82 3174.51 1259.54 3174.51 1263.25 3175.67 1266.81 3177.73 1269.44 3179.79 1272.06 3182.59 1273.54 3185.51 1273.54Z" stroke="#000000" stroke-width="4.58333" stroke-linejoin="round" stroke-miterlimit="10" fill-rule="evenodd"/><path d="M3419.53 1225.53C3422.44 1225.53 3425.24 1224.06 3427.3 1221.43 3429.37 1218.81 3430.53 1215.25 3430.53 1211.53 3430.53 1207.82 3429.37 1204.26 3427.3 1201.63 3425.24 1199.01 3422.44 1197.53 3419.53 1197.53 3416.61 1197.53 3413.81 1199.01 3411.75 1201.63 3409.69 1204.26 3408.53 1207.82 3408.53 1211.53 3408.53 1215.25 3409.69 1218.81 3411.75 1221.43 3413.81 1224.06 3416.61 1225.53 3419.53 1225.53Z" stroke="#000000" stroke-width="4.58333" stroke-linejoin="round" stroke-miterlimit="10" fill-rule="evenodd"/><path d="M3654.54 1336.54C3657.46 1336.54 3660.26 1335.12 3662.32 1332.59 3664.39 1330.05 3665.54 1326.62 3665.54 1323.04 3665.54 1319.46 3664.39 1316.03 3662.32 1313.49 3660.26 1310.96 3657.46 1309.54 3654.54 1309.54 3651.63 1309.54 3648.83 1310.96 3646.77 1313.49 3644.7 1316.03 3643.54 1319.46 3643.54 1323.04 3643.54 1326.62 3644.7 1330.05 3646.77 1332.59 3648.83 1335.12 3651.63 1336.54 3654.54 1336.54Z" stroke="#000000" stroke-width="4.58333" stroke-linejoin="round" stroke-miterlimit="10" fill-rule="evenodd"/><path d="M3419.5 908.5 3654.5 924.5" stroke="#0000FF" stroke-width="6.875" stroke-linecap="square" stroke-linejoin="round" stroke-miterlimit="10" fill="none" fill-rule="evenodd"/><path d="M3406.53 892.508 3410.33 909.008 3406.53 925.508 3419.53 920.675 3432.53 925.508 3428.72 909.008 3432.53 892.508 3419.53 897.341Z" stroke="#0000FF" stroke-width="4.58333" stroke-linejoin="bevel" stroke-miterlimit="10" fill="#0000FF" fill-rule="evenodd"/><path d="M3641.54 908.509 3645.35 924.509 3641.54 940.509 3654.54 935.823 3667.55 940.509 3663.74 924.509 3667.55 908.509 3654.54 913.195Z" stroke="#0000FF" stroke-width="4.58333" stroke-linejoin="bevel" stroke-miterlimit="10" fill="#0000FF" fill-rule="evenodd"/><path d="M3162 1398 3162 890" stroke="#000000" stroke-width="3.66667" stroke-linecap="square" stroke-miterlimit="8" fill="none" fill-rule="evenodd"/><path d="M3677 1398 3677 890" stroke="#000000" stroke-width="3.66667" stroke-linecap="square" stroke-miterlimit="8" fill="none" fill-rule="evenodd"/><path d="M3162 1398 3677 1398" stroke="#000000" stroke-width="3.66667" stroke-linecap="square" stroke-miterlimit="8" fill="none" fill-rule="evenodd"/><path d="M3162 890 3677 890" stroke="#000000" stroke-width="3.66667" stroke-linecap="square" stroke-miterlimit="8" fill="none" fill-rule="evenodd"/></g></svg>