<?xml version="1.0" encoding="UTF-8" standalone="no"?>
<svg
   width="4955"
   height="2292"
   xml:space="preserve"
   overflow="hidden"
   version="1.1"
   id="svg120"
   sodipodi:docname="radar.svg"
   inkscape:version="1.3 (0e150ed6c4, 2023-07-21)"
   xmlns:inkscape="http://www.inkscape.org/namespaces/inkscape"
   xmlns:sodipodi="http://sodipodi.sourceforge.net/DTD/sodipodi-0.dtd"
   xmlns="http://www.w3.org/2000/svg"
   xmlns:svg="http://www.w3.org/2000/svg"><defs
     id="defs120" /><sodipodi:namedview
     id="namedview120"
     pagecolor="#ffffff"
     bordercolor="#000000"
     borderopacity="0.25"
     inkscape:showpageshadow="2"
     inkscape:pageopacity="0.0"
     inkscape:pagecheckerboard="0"
     inkscape:deskcolor="#d1d1d1"
     inkscape:zoom="0.25130586"
     inkscape:cx="2508.8949"
     inkscape:cy="1151.9827"
     inkscape:window-width="1920"
     inkscape:window-height="1009"
     inkscape:window-x="1072"
     inkscape:window-y="177"
     inkscape:window-maximized="1"
     inkscape:current-layer="svg120" /><g
     transform="translate(178,-138)"
     id="g120"><path
       d="M -78.1793,2430 H 4677.18 c 66.53,0 99.82,-24.73 99.82,-74.28 V 212.28 C 4777,162.761 4743.71,138 4677.18,138 H -78.1793 C -144.709,138 -178,162.761 -178,212.28 v 2143.44 c 0,49.55 33.291,74.28 99.8207,74.28 z"
       fill="#ffffff"
       fill-rule="evenodd"
       fill-opacity="0.8"
       id="path1" /><path
       d="M 84.8121,2394.5 H 957.189 c 12.205,0 18.312,-4.93 18.312,-14.81 v -427.38 c 0,-9.87 -6.107,-14.81 -18.312,-14.81 H 84.8121 c -12.2051,0 -18.3123,4.94 -18.3123,14.81 v 427.38 c 0,9.88 6.1072,14.81 18.3123,14.81 z"
       stroke="#cccccc"
       stroke-width="4.58333"
       stroke-miterlimit="8"
       stroke-opacity="0.8"
       fill="#ffffff"
       fill-rule="evenodd"
       fill-opacity="0.8"
       id="path2" /><path
       d="m 2455.81,2395.5 h 872.38 c 12.2,0 18.31,-4.94 18.31,-14.84 v -428.32 c 0,-9.89 -6.11,-14.84 -18.31,-14.84 h -872.38 c -12.2,0 -18.31,4.95 -18.31,14.84 v 428.32 c 0,9.9 6.11,14.84 18.31,14.84 z"
       stroke="#cccccc"
       stroke-width="4.58333"
       stroke-miterlimit="8"
       stroke-opacity="0.8"
       fill="#ffffff"
       fill-rule="evenodd"
       fill-opacity="0.8"
       id="path3" /><path
       d="m 1782,1123.5 c 0,-100.13 -19.72,-199.29 -58.04,-291.797 C 1685.64,739.197 1629.47,655.135 1558.67,584.331 1487.87,513.528 1403.8,457.36 1311.3,419.042 1218.79,380.724 1119.63,361 1019.5,361 919.369,361 820.21,380.724 727.703,419.042 635.197,457.36 551.135,513.528 480.331,584.331 409.528,655.135 353.36,739.197 315.042,831.703 276.724,924.21 257,1023.37 257,1123.5 c 0,100.13 19.724,199.29 58.042,291.8 38.318,92.5 94.486,176.57 165.289,247.37 70.804,70.8 154.866,126.97 247.372,165.29 92.507,38.32 191.666,58.04 291.797,58.04 100.13,0 199.29,-19.72 291.8,-58.04 92.5,-38.32 176.57,-94.49 247.37,-165.29 70.8,-70.8 126.97,-154.87 165.29,-247.37 38.32,-92.51 58.04,-191.67 58.04,-291.8 m -762.5,0 c 0,0 0,0 0,0 0,0 0,0 0,0 0,0 0,0 0,0 0,0 0,0 0,0 0,0 0,0 0,0 0,0 0,0 0,0 0,0 0,0 0,0 0,0 0,0 0,0 0,0 0,0 0,0 0,0 0,0 0,0 0,0 0,0 0,0 0,0 0,0 0,0 0,0 0,0 0,0 0,0 0,0 0,0 z"
       fill="#ffffff"
       fill-rule="evenodd"
       id="path4" /><path
       d="m 1096.45,1124.46 62.05,-425.456 -755,-22.504 242.204,720 398.986,-196.75 z"
       stroke="#ffd700"
       stroke-width="4.58333"
       stroke-miterlimit="8"
       stroke-opacity="0.25098"
       fill="#ffd700"
       fill-rule="evenodd"
       fill-opacity="0.25098"
       id="path5" /><path
       d="M 1096.55,1124 1062.24,995.02 416.41,685.5 l -12.91,886.37 774,35.63 z"
       stroke="#0000ff"
       stroke-width="4.58333"
       stroke-miterlimit="8"
       stroke-opacity="0.25098"
       fill="#0000ff"
       fill-rule="evenodd"
       fill-opacity="0.25098"
       id="path6" /><path
       d="m 1553.5,1124 -509.81,-72.5 -85.19,27.69 v 89.62 l 85.19,27.69 z"
       stroke="#ff0000"
       stroke-width="4.58333"
       stroke-miterlimit="8"
       stroke-opacity="0.25098"
       fill="#ff0000"
       fill-rule="evenodd"
       fill-opacity="0.25098"
       id="path7" /><path
       d="M 1782.5,1124.5 1255.74,399.5 674.5,873.371 948.399,1176.64 1255.74,1849.5 Z"
       stroke="#4b0082"
       stroke-width="4.58333"
       stroke-miterlimit="8"
       stroke-opacity="0.25098"
       fill="#4b0082"
       fill-rule="evenodd"
       fill-opacity="0.25098"
       id="path8" /><path
       d="m 1020,1124 h 762"
       stroke="#b0b0b0"
       stroke-width="3.66667"
       stroke-linecap="square"
       stroke-linejoin="round"
       stroke-miterlimit="10"
       fill="none"
       fill-rule="evenodd"
       id="path9" /><path
       d="M 1020,1124 1255,399"
       stroke="#b0b0b0"
       stroke-width="3.66667"
       stroke-linecap="square"
       stroke-linejoin="round"
       stroke-miterlimit="10"
       fill="none"
       fill-rule="evenodd"
       id="path10" /><path
       d="M 1020,1124 403,676"
       stroke="#b0b0b0"
       stroke-width="3.66667"
       stroke-linecap="square"
       stroke-linejoin="round"
       stroke-miterlimit="10"
       fill="none"
       fill-rule="evenodd"
       id="path11" /><path
       d="M 1020,1124 403,1572"
       stroke="#b0b0b0"
       stroke-width="3.66667"
       stroke-linecap="square"
       stroke-linejoin="round"
       stroke-miterlimit="10"
       fill="none"
       fill-rule="evenodd"
       id="path12" /><path
       d="m 1020,1124 235,725"
       stroke="#b0b0b0"
       stroke-width="3.66667"
       stroke-linecap="square"
       stroke-linejoin="round"
       stroke-miterlimit="10"
       fill="none"
       fill-rule="evenodd"
       id="path13" /><path
       d="m 1172,1123.5 c 0,-20.03 -3.94,-39.86 -11.61,-58.36 -7.66,-18.5 -18.9,-35.31 -33.06,-49.47 -14.16,-14.16 -30.97,-25.396 -49.47,-33.062 -18.5,-7.665 -38.33,-11.608 -58.36,-11.608 -20.025,0 -39.858,3.943 -58.361,11.608 -18.499,7.666 -35.31,18.902 -49.472,33.062 -14.162,14.16 -25.394,30.97 -33.059,49.47 -7.665,18.5 -11.608,38.33 -11.608,58.36 0,20.03 3.943,39.86 11.608,58.36 7.665,18.5 18.897,35.31 33.059,49.47 14.162,14.16 30.973,25.4 49.472,33.06 18.503,7.67 38.336,11.61 58.361,11.61 20.03,0 39.86,-3.94 58.36,-11.61 18.5,-7.66 35.31,-18.9 49.47,-33.06 14.16,-14.16 25.4,-30.97 33.06,-49.47 7.67,-18.5 11.61,-38.33 11.61,-58.36"
       stroke="#b0b0b0"
       stroke-width="3.66667"
       stroke-linecap="square"
       stroke-linejoin="round"
       stroke-miterlimit="10"
       fill="none"
       fill-rule="evenodd"
       id="path14" /><path
       d="M -1.02938,23.2091 H 2.09836 L 6.91547,2.92308 11.7177,23.2091 h 3.4862 L 20.021,2.92308 24.8233,23.2091 h 3.1475 L 22.2159,-0.790572 H 18.3172 L 13.4852,20.0409 8.60448,-0.790572 H 4.70576 Z"
       fill="#808080"
       fill-rule="evenodd"
       transform="matrix(1,0,0,-1,1153,1041)"
       id="path15" /><path
       d="m 7.38811,15.0686 c -1.53405,0 -2.74724,-0.5892 -3.64028,-1.7683 C 2.85479,12.1216 2.40809,10.507 2.40809,8.45657 c 0,-2.05076 0.44312,-3.66535 1.3297,-4.84411 0.88982,-1.17877 2.10659,-1.76833 3.65032,-1.76833 1.52724,0 2.73539,0.59097 3.62519,1.77326 0.8931,1.18511 1.3398,2.79829 1.3398,4.83918 0,2.03103 -0.4467,3.64063 -1.3398,4.82933 -0.8898,1.1886 -2.09795,1.7827 -3.62519,1.7827 z m 0,2.3854 c 2.48983,0 4.44509,-0.7969 5.86629,-2.3903 1.4243,-1.5902 2.1363,-3.7926 2.1363,-6.60713 0,-2.80499 -0.712,-5.00737 -2.1363,-6.6075 -1.4212,-1.596604 -3.37646,-2.394905 -5.86629,-2.394905 -2.49987,0 -4.45875,0.798301 -5.87629,2.394905 -1.4143061,1.60013 -2.12164,3.80251 -2.12164,6.6075 0,2.81453 0.7073339,5.01693 2.12164,6.60713 1.41754,1.5934 3.37642,2.3903 5.87629,2.3903 z"
       fill="#808080"
       fill-rule="evenodd"
       transform="matrix(1,0,0,-1,1183,1041)"
       id="path16" /><path
       d="m 9.52868,14.3047 c -0.31572,0.1877 -0.65882,0.3247 -1.02932,0.4118 -0.37085,0.0904 -0.77893,0.1356 -1.22458,0.1356 -1.587,0 -2.80491,-0.5307 -3.65372,-1.5919 C 2.77225,12.1986 2.34802,10.6736 2.34802,8.68465 V -0.576326 H -0.47164 V 17.0016 h 2.81966 v -2.7319 c 0.59174,1.068 1.35908,1.8598 2.30236,2.3754 0.94644,0.5188 2.09587,0.7784 3.44898,0.7784 0.19175,0 0.40491,-0.0133 0.6388,-0.0401 0.23424,-0.0235 0.49271,-0.0618 0.77577,-0.1153 z"
       fill="#808080"
       fill-rule="evenodd"
       transform="matrix(1,0,0,-1,1204,1041)"
       id="path17" /><path
       d="m 11.5901,16.538 v -2.6643 c -0.7872,0.4079 -1.60695,0.7133 -2.45888,0.9157 -0.84913,0.2059 -1.73045,0.3085 -2.64396,0.3085 -1.38653,0 -2.42669,-0.2137 -3.12013,-0.6414 -0.69308,-0.4277 -1.0398,-1.0712 -1.0398,-1.9298 0,-0.653 0.2477,-1.1657 0.74347,-1.5381 0.49576,-0.3723 1.49358,-0.7263 2.99382,-1.06272 L 7.02186,9.71044 C 9.00457,9.28273 10.4142,8.67836 11.25,7.89804 c 0.8359,-0.78032 1.254,-1.86952 1.254,-3.2669 0,-1.59343 -0.6256,-2.85541 -1.876,-3.785942 -1.25082,-0.9273554 -2.96938,-1.391033 -5.15641,-1.391033 -0.91035,0 -1.8599,0.089562 -2.84793,0.269391 -0.98802,0.1794771 -2.028184,0.447106 -3.120123,0.803238 V 3.43615 C 0.537048,2.8942 1.55447,2.48764 2.55579,2.21649 3.55676,1.94886 4.54969,1.81487 5.53457,1.81487 c 1.31551,0 2.32663,0.22708 3.03266,0.68088 0.70953,0.45381 1.0643,1.09379 1.0643,1.91994 0,0.7641 -0.25575,1.35014 -0.76761,1.75845 C 8.35521,6.58211 7.23423,6.97562 5.50063,7.35432 L 4.5287,7.58457 C 2.7986,7.95022 1.54817,8.51369 0.777058,9.27426 0.00909658,10.0352 -0.375059,11.0786 -0.375059,12.404 c 0,1.6132 0.567137,2.8572 1.701059,3.7323 1.13393,0.8784 2.74437,1.3177 4.83064,1.3177 1.03036,0 2.00089,-0.0768 2.91125,-0.2302 0.91351,-0.1502 1.75421,-0.3787 2.52221,-0.6858 z"
       fill="#808080"
       fill-rule="evenodd"
       transform="matrix(1,0,0,-1,1216,1041)"
       id="path18" /><path
       d="M 4.67601,22.2451 V 17.1579 H 10.6392 V 14.8702 H 4.67601 V 5.14612 c 0,-1.46053 0.19616,-2.39897 0.58921,-2.81495 C 5.65791,1.91483 6.45888,1.70665 7.66777,1.70665 H 10.6392 V -0.754951 H 7.66777 c -2.23648,0 -3.77932,0.422979 -4.62887,1.268937 C 2.18934,1.36363 1.76474,2.9078 1.76474,5.14612 v 9.72408 h -2.125521 v 2.2877 H 1.76474 v 5.0872 z"
       fill="#808080"
       fill-rule="evenodd"
       transform="matrix(1,0,0,-1,1232,1041)"
       id="path19" /><path
       d="m 1325,1124 c 0,-40.05 -7.89,-79.72 -23.22,-116.72 -15.32,-37.004 -37.79,-70.627 -66.11,-98.946 -28.32,-28.323 -61.95,-50.792 -98.95,-66.118 C 1099.72,826.89 1060.05,819 1020,819 c -40.05,0 -79.716,7.89 -116.718,23.216 -37.006,15.326 -70.629,37.795 -98.948,66.118 -28.323,28.319 -50.792,61.942 -66.118,98.946 -15.326,37 -23.216,76.67 -23.216,116.72 0,40.05 7.89,79.72 23.216,116.72 15.326,37 37.795,70.63 66.118,98.95 28.319,28.32 61.942,50.79 98.948,66.11 37.002,15.33 76.668,23.22 116.718,23.22 40.05,0 79.72,-7.89 116.72,-23.22 37,-15.32 70.63,-37.79 98.95,-66.11 28.32,-28.32 50.79,-61.95 66.11,-98.95 15.33,-37 23.22,-76.67 23.22,-116.72"
       stroke="#b0b0b0"
       stroke-width="3.66667"
       stroke-linecap="square"
       stroke-linejoin="round"
       stroke-miterlimit="10"
       fill="none"
       fill-rule="evenodd"
       id="path20" /><path
       d="M 3.23525,1.88494 H 14.3917 V -0.798062 H -0.608478 V 1.88494 C 0.603738,3.13805 2.25636,4.81893 4.3494,6.92757 6.44607,9.03949 7.76256,10.4021 8.29958,11.015 c 1.023,1.1454 1.73682,2.1156 2.14192,2.9103 0.4087,0.7952 0.6128,1.5765 0.6128,2.3444 0,1.2531 -0.4404,2.2738 -1.32157,3.062 -0.88118,0.7915 -2.02923,1.1873 -3.44379,1.1873 -1.00258,0 -2.06095,-0.1731 -3.17509,-0.5202 -1.11087,-0.347 -2.299386,-0.874 -3.565196,-1.5815 v 3.2235 c 1.286226,0.5154 2.488236,0.9046 3.605656,1.1673 1.12071,0.2626 2.14554,0.3939 3.07375,0.3939 2.44777,0 4.39934,-0.6111 5.85434,-1.834 1.4551,-1.2193 2.1827,-2.8496 2.1827,-4.891 0,-0.9701 -0.1822,-1.8896 -0.5468,-2.7586 C 13.357,12.8527 12.6953,11.8302 11.7332,10.6513 11.4696,10.3446 10.6307,9.46217 9.21613,8.00354 7.80485,6.54527 5.81135,4.50538 3.23525,1.88494 Z"
       fill="#808080"
       fill-rule="evenodd"
       transform="matrix(1,0,0,-1,1286,965)"
       id="path21" /><path
       d="M 0.364496,23.2351 H 12.6769 V 20.551 H 3.23611 v -5.7668 c 0.45392,0.1584 0.90784,0.2761 1.3614,0.3535 0.45714,0.0773 0.91428,0.1158 1.37142,0.1158 2.58724,0 4.63577,-0.7199 6.14637,-2.1593 1.5138,-1.4394 2.2707,-3.38877 2.2707,-5.84736 0,-2.53269 -0.777,-4.50203 -2.3305,-5.90803 -1.5534,-1.4027356 -3.74292,-2.104101 -6.56839,-2.104101 -0.97401,0 -1.96592,0.084265 -2.97642,0.252433 C 1.50377,-0.34469 0.462148,-0.0922563 -0.614528,0.24408 V 3.44762 C 0.316206,2.93295 1.27842,2.54976 2.27247,2.29733 3.26615,2.04526 4.316,1.91886 5.42237,1.91886 c 1.79207,0 3.20999,0.47762 4.2534,1.43288 1.04663,0.95525 1.56993,2.25374 1.56993,3.8951 0,1.63809 -0.5233,2.93476 -1.56993,3.88966 -1.04341,0.9589 -2.46133,1.438 -4.2534,1.438 -0.83809,0 -1.67439,-0.0941 -2.50891,-0.2826 C 2.08181,12.1037 1.23228,11.8092 0.364496,11.4093 Z"
       fill="#808080"
       fill-rule="evenodd"
       transform="matrix(1,0,0,-1,1307,965)"
       id="path22" /><path
       d="m 20.6058,9.8625 c -0.9106,0 -1.6259,-0.3819 -2.1449,-1.14533 -0.5156,-0.76343 -0.7735,-1.82773 -0.7735,-3.19256 0,-1.34198 0.2579,-2.39808 0.7735,-3.16829 0.519,-0.76985 1.2343,-1.15496 2.1449,-1.15496 0.891,0 1.5941,0.38511 2.1097,1.15496 0.5194,0.77021 0.779,1.82631 0.779,3.16829 0,1.35483 -0.2596,2.41593 -0.779,3.18257 -0.5156,0.77021 -1.2187,1.15532 -2.1097,1.15532 z m 0,1.968 c 1.6545,0 2.9672,-0.5682 3.9385,-1.7053 0.9743,-1.13356 1.4617,-2.66721 1.4617,-4.60059 0,-1.93017 -0.4889,-3.46238 -1.4667,-4.59593 -0.9779,-1.130334 -2.2892,-1.69568 -3.9335,-1.69568 -1.6744,0 -2.9987,0.565346 -3.9733,1.69568 -0.9713,1.13355 -1.4566,2.66576 -1.4566,4.59593 0,1.94338 0.4889,3.48023 1.4668,4.61059 0.9778,1.1303 2.2989,1.6953 3.9631,1.6953 z M 4.40576,21.2651 c -0.90082,0 -1.61071,-0.3851 -2.12965,-1.155 -0.51605,-0.767 -0.77389,-1.8227 -0.77389,-3.1679 0,-1.362 0.2564,-2.426 0.76883,-3.1929 0.51207,-0.7635 1.22376,-1.1454 2.13471,-1.1454 0.91095,0 1.62409,0.3819 2.14014,1.1454 0.51894,0.7669 0.77859,1.8309 0.77859,3.1929 0,1.332 -0.26146,2.3845 -0.78365,3.1579 -0.52256,0.7766 -1.23425,1.165 -2.13508,1.165 z m 14.17594,1.9683 h 2.5116 L 6.43018,-0.767 H 3.91864 Z m -14.17594,0 c 1.65447,0 2.97226,-0.5653 3.95336,-1.6957 0.98473,-1.1303 1.47691,-2.6622 1.47691,-4.5955 0,-1.9502 -0.48893,-3.4888 -1.46678,-4.6156 -0.97785,-1.1271 -2.2989,-1.6907 -3.96349,-1.6907 -1.66423,0 -2.98057,0.565 -3.948296,1.6953 -0.967727,1.1339 -1.45159,2.6708 -1.45159,4.611 0,1.9234 0.485671,3.452 1.456653,4.5859 0.974603,1.1368 2.289133,1.7053 3.943233,1.7053 z"
       fill="#808080"
       fill-rule="evenodd"
       transform="matrix(1,0,0,-1,1326,965)"
       id="path23" /><path
       d="m 1477,1123.5 c 0,-60.08 -11.83,-119.57 -34.82,-175.079 -23,-55.505 -56.7,-105.939 -99.18,-148.424 -42.48,-42.481 -92.92,-76.181 -148.42,-99.173 C 1139.07,677.833 1079.58,666 1019.5,666 c -60.08,0 -119.574,11.833 -175.079,34.824 -55.505,22.992 -105.939,56.692 -148.424,99.173 -42.481,42.485 -76.181,92.919 -99.173,148.424 C 573.833,1003.93 562,1063.42 562,1123.5 c 0,60.08 11.833,119.57 34.824,175.08 22.992,55.5 56.692,105.94 99.173,148.42 42.485,42.48 92.919,76.18 148.424,99.18 55.505,22.99 114.999,34.82 175.079,34.82 60.08,0 119.57,-11.83 175.08,-34.82 55.5,-23 105.94,-56.7 148.42,-99.18 42.48,-42.48 76.18,-92.92 99.18,-148.42 22.99,-55.51 34.82,-115 34.82,-175.08"
       stroke="#b0b0b0"
       stroke-width="3.66667"
       stroke-linecap="square"
       stroke-linejoin="round"
       stroke-miterlimit="10"
       fill="none"
       fill-rule="evenodd"
       id="path24" /><path
       d="M 0.373081,23.2293 H 12.6855 V 20.5452 H 3.24505 v -5.7668 c 0.45356,0.158 0.90748,0.2757 1.36141,0.3531 0.45714,0.0773 0.91428,0.1162 1.37142,0.1162 2.58688,0 4.63582,-0.7199 6.14602,-2.1597 1.5138,-1.4394 2.2706,-3.38874 2.2706,-5.84734 0,-2.53269 -0.7765,-4.50203 -2.33,-5.90803 -1.5539,-1.402367 -3.74333,-2.103732 -6.5688,-2.103732 -0.97366,0 -1.96592,0.083902 -2.97606,0.25207 -1.00693,0.168168 -2.048907,0.4206011 -3.125225,0.756937 V 3.44145 C 0.325149,2.92714 1.28736,2.54358 2.28105,2.29115 c 0.99369,-0.25207 2.0439,-0.3781 3.15026,-0.3781 1.79208,0 3.20964,0.47762 4.25305,1.43287 1.04664,0.95526 1.56994,2.25338 1.56994,3.89474 0,1.6381 -0.5233,2.93474 -1.56994,3.89004 -1.04341,0.9585 -2.46097,1.4379 -4.25305,1.4379 -0.83809,0 -1.67475,-0.0944 -2.50926,-0.2825 -0.8313,-0.1885 -1.68119,-0.4827 -2.548969,-0.883 z"
       fill="#808080"
       fill-rule="evenodd"
       transform="matrix(1,0,0,-1,1418,889)"
       id="path25" /><path
       d="m 7.38343,21.6132 c -1.61084,0 -2.82308,-0.8265 -3.63671,-2.4791 C 2.9363,17.4853 2.53127,15.0029 2.53127,11.6873 2.53127,8.38554 2.9363,5.90873 3.74672,4.25616 4.56035,2.60359 5.77259,1.77712 7.38343,1.77712 c 1.62405,0 2.84097,0.82647 3.65137,2.47904 0.8136,1.65257 1.2204,4.12938 1.2204,7.43114 0,3.3156 -0.4068,5.798 -1.2204,7.4468 -0.8104,1.6526 -2.02732,2.4791 -3.65137,2.4791 z m 0,2.582 c 2.59627,0 4.57927,-1.0689 5.94867,-3.207 1.369,-2.1344 2.0537,-5.2347 2.0537,-9.3009 0,-4.05573 -0.6847,-7.1523 -2.0537,-9.29042 -1.3694,-2.134774 -3.3524,-3.201788 -5.94867,-3.201788 -2.59342,0 -4.57428,1.067014 -5.94368,3.201788 -1.3693874,2.13812 -2.054083,5.23469 -2.054083,9.29042 0,4.0662 0.6846956,7.1665 2.054083,9.3009 1.3694,2.1381 3.35026,3.207 5.94368,3.207 z"
       fill="#808080"
       fill-rule="evenodd"
       transform="matrix(1,0,0,-1,1438,889)"
       id="path26" /><path
       d="m 20.6163,10.2671 c -0.911,0 -1.6259,-0.39741 -2.1449,-1.19265 -0.5157,-0.79561 -0.7735,-1.90427 -0.7735,-3.32596 0,-1.3979 0.2578,-2.49763 0.7735,-3.29993 0.519,-0.80231 1.2339,-1.20346 2.1449,-1.20346 0.8907,0 1.5941,0.40115 2.1097,1.20346 0.5193,0.8023 0.7786,1.90203 0.7786,3.29993 0,1.41166 -0.2593,2.51659 -0.7786,3.31555 -0.5156,0.80193 -1.219,1.20306 -2.1097,1.20306 z m 0,2.0504 c 1.6544,0 2.9672,-0.5922 3.9381,-1.7767 0.9746,-1.18082 1.4621,-2.77837 1.4621,-4.79231 0,-2.0106 -0.4889,-3.60628 -1.4668,-4.787434 -0.9778,-1.177433 -2.2891,-1.765964 -3.9334,-1.765964 -1.6744,0 -2.9987,0.588531 -3.9733,1.765964 -0.9713,1.181154 -1.457,2.776834 -1.457,4.787434 0,2.02435 0.4889,3.62525 1.4672,4.80271 0.9778,1.1774 2.2988,1.7663 3.9631,1.7663 z M 4.41625,22.1452 c -0.90083,0 -1.61071,-0.4012 -2.13001,-1.2035 -0.51569,-0.7986 -0.77353,-1.8987 -0.77353,-3.2999 0,-1.4184 0.25639,-2.527 0.76846,-3.3256 0.51244,-0.7956 1.22413,-1.193 2.13508,-1.193 0.91095,0 1.62409,0.3974 2.13978,1.193 0.5193,0.7986 0.77859,1.9072 0.77859,3.3256 0,1.3875 -0.2611,2.4839 -0.78366,3.2895 -0.52219,0.8094 -1.23389,1.2139 -2.13471,1.2139 z m 14.17565,2.05 h 2.5119 L 6.44066,-0.804908 H 3.92913 Z m -14.17565,0 c 1.65447,0 2.97225,-0.5885 3.95336,-1.766 0.98436,-1.1774 1.4769,-2.7735 1.4769,-4.7874 0,-2.0314 -0.48892,-3.6338 -1.46678,-4.8079 -0.97785,-1.1741 -2.29925,-1.7611 -3.96348,-1.7611 -1.66423,0 -2.98057,0.5889 -3.948298,1.7663 -0.967727,1.1808 -1.451591,2.7817 -1.451591,4.8027 0,2.0039 0.48531,3.5962 1.456654,4.777 0.974595,1.1841 2.288765,1.7764 3.943235,1.7764 z"
       fill="#808080"
       fill-rule="evenodd"
       transform="matrix(1,0,0,-1,1458,889)"
       id="path27" /><path
       d="m 1629,1123.5 c 0,-80.04 -15.77,-159.301 -46.39,-233.244 C 1551.97,816.308 1507.08,749.113 1450.48,692.518 1393.89,635.922 1326.69,591.026 1252.74,560.395 1178.8,529.766 1099.54,514 1019.5,514 939.46,514 860.199,529.766 786.256,560.395 712.309,591.026 645.113,635.922 588.518,692.518 531.922,749.113 487.026,816.308 456.395,890.256 425.766,964.199 410,1043.46 410,1123.5 c 0,80.04 15.766,159.3 46.395,233.24 30.631,73.95 75.527,141.15 132.123,197.74 56.595,56.6 123.791,101.49 197.738,132.13 73.943,30.62 153.204,46.39 233.244,46.39 80.04,0 159.3,-15.77 233.24,-46.39 73.95,-30.64 141.15,-75.53 197.74,-132.13 56.6,-56.59 101.49,-123.79 132.13,-197.74 30.62,-73.94 46.39,-153.2 46.39,-233.24"
       stroke="#b0b0b0"
       stroke-width="3.66667"
       stroke-linecap="square"
       stroke-linejoin="round"
       stroke-miterlimit="10"
       fill="none"
       fill-rule="evenodd"
       id="path28" /><path
       d="M -0.606902,22.2246 H 14.3936 V 20.8989 L 5.92324,-0.775386 H 2.62811 L 10.5985,19.6022 H -0.606902 Z"
       fill="#808080"
       fill-rule="evenodd"
       transform="matrix(1,0,0,-1,1550,812)"
       id="path29" /><path
       d="M 0.384885,23.2232 H 12.6973 V 20.539 H 3.25685 v -5.7667 c 0.45393,0.158 0.90749,0.2756 1.36141,0.353 0.45714,0.0774 0.91428,0.1162 1.37142,0.1162 2.58688,0 4.63582,-0.7199 6.14632,-2.1593 1.5138,-1.4398 2.2707,-3.38875 2.2707,-5.84771 0,-2.53269 -0.7769,-4.50203 -2.3304,-5.90767 -1.5535,-1.4027316 -3.74297,-2.104097 -6.5688,-2.104097 -0.97366,0 -1.96592,0.084265 -2.97606,0.252433 -1.00692,0.168168 -2.048903,0.420238 -3.125221,0.756574 V 3.43564 C 0.336953,2.92096 1.29916,2.53741 2.29285,2.28534 3.28654,2.03291 4.33675,1.90687 5.44311,1.90687 c 1.79208,0 3.20964,0.47763 4.25305,1.43288 1.04694,0.95525 1.57034,2.25338 1.57034,3.89474 0,1.63809 -0.5234,2.93481 -1.57034,3.89001 -1.04341,0.9585 -2.46097,1.438 -4.25305,1.438 -0.83809,0 -1.67439,-0.0941 -2.50926,-0.2826 -0.83129,-0.1882 -1.68119,-0.4827 -2.548965,-0.883 z"
       fill="#808080"
       fill-rule="evenodd"
       transform="matrix(1,0,0,-1,1571,813)"
       id="path30" /><path
       d="m 20.6268,10.2612 c -0.911,0 -1.6259,-0.39783 -2.1449,-1.19307 -0.5157,-0.79524 -0.7735,-1.90389 -0.7735,-3.32596 0,-1.39753 0.2578,-2.49763 0.7735,-3.29994 0.519,-0.80193 1.2339,-1.20308 2.1449,-1.20308 0.8907,0 1.594,0.40115 2.1097,1.20308 0.519,0.80231 0.7786,1.90241 0.7786,3.29994 0,1.41166 -0.2596,2.51696 -0.7786,3.31555 -0.5157,0.80231 -1.219,1.20348 -2.1097,1.20348 z m 0,2.05 c 1.6544,0 2.9672,-0.5923 3.9381,-1.7764 0.9746,-1.18114 1.4618,-2.77832 1.4618,-4.79263 0,-2.0106 -0.4886,-3.60628 -1.4668,-4.787062 -0.9779,-1.177434 -2.2888,-1.766336 -3.9331,-1.766336 -1.6744,0 -2.9991,0.588902 -3.9733,1.766336 -0.9713,1.180782 -1.457,2.776462 -1.457,4.787062 0,2.02435 0.4889,3.62562 1.4668,4.80303 0.9778,1.1775 2.2992,1.766 3.9635,1.766 z M 4.42674,22.1389 c -0.90083,0 -1.61107,-0.4012 -2.13002,-1.2031 -0.51568,-0.799 -0.77353,-1.8991 -0.77353,-3.3003 0,-1.4184 0.25604,-2.527 0.76847,-3.3256 0.51243,-0.7953 1.22413,-1.1931 2.13508,-1.1931 0.91095,0 1.62409,0.3978 2.13977,1.1931 0.51931,0.7986 0.7786,1.9072 0.7786,3.3256 0,1.3875 -0.2611,2.4842 -0.78366,3.2899 -0.5222,0.809 -1.23389,1.2135 -2.13471,1.2135 z m 14.17556,2.0503 h 2.5116 L 6.45115,-0.811228 H 3.93926 Z m -14.17556,0 c 1.6541,0 2.97189,-0.5889 3.95336,-1.7663 0.98436,-1.1774 1.4769,-2.7731 1.4769,-4.7874 0,-2.0311 -0.48892,-3.6338 -1.46714,-4.8079 -0.97785,-1.1737 -2.29889,-1.7608 -3.96312,-1.7608 -1.6646,0 -2.98057,0.5886 -3.948301,1.766 -0.968089,1.1811 -1.451952,2.782 -1.451952,4.8027 0,2.0039 0.485672,3.5962 1.457015,4.777 0.974238,1.1845 2.288768,1.7767 3.943238,1.7767 z"
       fill="#808080"
       fill-rule="evenodd"
       transform="matrix(1,0,0,-1,1590,813)"
       id="path31" /><path
       d="m 1782,1123.5 c 0,-100.13 -19.72,-199.29 -58.04,-291.797 C 1685.64,739.197 1629.47,655.135 1558.67,584.331 1487.87,513.528 1403.8,457.36 1311.3,419.042 1218.79,380.724 1119.63,361 1019.5,361 919.369,361 820.21,380.724 727.703,419.042 635.197,457.36 551.135,513.528 480.331,584.331 409.528,655.135 353.36,739.197 315.042,831.703 276.724,924.21 257,1023.37 257,1123.5 c 0,100.13 19.724,199.29 58.042,291.8 38.318,92.5 94.486,176.57 165.289,247.37 70.804,70.8 154.866,126.97 247.372,165.29 92.507,38.32 191.666,58.04 291.797,58.04 100.13,0 199.29,-19.72 291.8,-58.04 92.5,-38.32 176.57,-94.49 247.37,-165.29 70.8,-70.8 126.97,-154.87 165.29,-247.37 38.32,-92.51 58.04,-191.67 58.04,-291.8"
       stroke="#b0b0b0"
       stroke-width="3.66667"
       stroke-linecap="square"
       stroke-linejoin="round"
       stroke-miterlimit="10"
       fill="none"
       fill-rule="evenodd"
       id="path32" /><path
       d="M 2.53276,10.6446 V 1.85408 h 5.20271 c 1.74298,0 3.03373,0.36178 3.87273,1.08534 0.8423,0.72356 1.2634,1.82964 1.2634,3.31786 0,1.50193 -0.4211,2.60763 -1.2634,3.31749 -0.839,0.71323 -2.12975,1.06983 -3.87273,1.06983 z m 0,9.8706 v -7.2319 h 4.80227 c 1.58178,0 2.75977,0.2966 3.53327,0.8898 0.7772,0.5969 1.1662,1.5057 1.1662,2.7261 0,1.2105 -0.389,2.1159 -1.1662,2.7162 -0.7735,0.5999 -1.95149,0.8998 -3.53327,0.8998 z M -0.708065,23.185 H 7.57648 c 2.47172,0 4.37562,-0.5143 5.71112,-1.5434 1.3388,-1.0286 2.0081,-2.4909 2.0081,-4.3872 0,-1.4712 -0.3424,-2.6406 -1.0272,-3.5082 -0.6848,-0.8676 -1.6916,-1.4075 -3.0201,-1.6201 1.5959,-0.3429 2.8352,-1.0598 3.7186,-2.14993 0.8833,-1.08719 1.3251,-2.44507 1.3251,-4.074 0,-2.14328 -0.7276,-3.79925 -2.1829,-4.968651 -1.455,-1.166066 -3.5267,-1.748913 -6.21437,-1.748913 h -8.602895 z"
       fill="#808080"
       fill-rule="evenodd"
       transform="matrix(1,0,0,-1,1683,736)"
       id="path33" /><path
       d="M 15.4313,9.15297 V 7.77674 H 2.39038 C 2.51537,5.83705 3.10374,4.35963 4.15619,3.34412 5.20828,2.32861 6.67475,1.82086 8.5556,1.82086 c 1.08832,0 2.144,0.13223 3.1666,0.39668 1.0226,0.26446 2.0385,0.6629 3.048,1.19499 V 0.748232 C 13.7507,0.32052 12.7068,-0.00599431 11.6384,-0.23131 10.5696,-0.456626 9.48626,-0.56946 8.388,-0.56946 c -2.75575,0 -4.93735,0.795128 -6.54515,2.38538 -1.607788,1.59343 -2.41204,3.74857 -2.41204,6.46505 0,2.80503 0.763063,5.03033 2.28883,6.67593 1.52542,1.6491 3.58416,2.4735 6.17516,2.4735 2.3215,0 4.158,-0.7429 5.5094,-2.2285 1.3514,-1.4823 2.0271,-3.4989 2.0271,-6.04893 z M 12.595,9.98089 C 12.5754,11.5186 12.1415,12.7464 11.2929,13.6639 10.4446,14.5849 9.32186,15.045 7.92427,15.045 6.34276,15.045 5.0769,14.6011 4.12636,13.7129 3.17617,12.8247 2.62864,11.5743 2.48412,9.96114 Z"
       fill="#808080"
       fill-rule="evenodd"
       transform="matrix(1,0,0,-1,1704,736)"
       id="path34" /><path
       d="M 12.5235,16.5147 V 13.85 c -0.8478,0.4084 -1.7306,0.7137 -2.64841,0.9161 -0.91408,0.2056 -1.86319,0.3085 -2.84697,0.3085 -1.49357,0 -2.61336,-0.214 -3.36014,-0.6417 C 2.92119,14.0052 2.5478,13.362 2.5478,12.5031 c 0,-0.653 0.26714,-1.1657 0.80104,-1.5377 C 3.88236,10.593 4.95732,10.2386 6.57259,9.90226 L 7.60384,9.68681 C 9.73907,9.2591 11.2567,8.65508 12.1573,7.87477 c 0.9001,-0.78068 1.35,-1.86952 1.35,-3.26691 0,-1.59378 -0.6733,-2.85576 -2.02,-3.786286 -1.347,-0.927356 -3.19809,-1.391034 -5.55298,-1.391034 -0.98076,0 -2.00297,0.089915 -3.06701,0.269392 C 1.8029,-0.120592 0.683106,0.14739 -0.492831,0.50317 V 3.41253 C 0.620184,2.87057 1.71587,2.46402 2.79384,2.19286 3.87219,1.92523 4.9415,1.79124 6.00214,1.79124 c 1.4167,0 2.50523,0.22708 3.26595,0.68089 0.76411,0.4538 1.14621,1.09378 1.14621,1.91994 0,0.7641 -0.2758,1.35048 -0.82708,1.75845 C 9.03938,6.55884 7.83217,6.95235 5.96559,7.33105 L 4.91889,7.5613 C 3.0557,7.92695 1.70871,8.49007 0.878279,9.25099 0.0516192,10.0116 -0.362088,11.0549 -0.362088,12.3807 c 0,1.6132 0.610764,2.8572 1.831918,3.7324 1.22115,0.8783 2.9551,1.3173 5.20223,1.3173 1.10962,0 2.15482,-0.0765 3.13521,-0.2302 0.98373,-0.1503 1.88923,-0.3787 2.71623,-0.6855 z"
       fill="#808080"
       fill-rule="evenodd"
       transform="matrix(1,0,0,-1,1723,736)"
       id="path35" /><path
       d="M 4.71589,22.2208 V 17.1332 H 10.6795 V 14.8455 H 4.71589 V 5.12143 c 0,-1.46016 0.19653,-2.3986 0.58922,-2.81494 C 5.69816,1.89014 6.49876,1.68197 7.70765,1.68197 H 10.6795 V -0.779637 H 7.70765 c -2.23611,0 -3.77895,0.422979 -4.62851,1.269305 C 2.22959,1.33931 1.80463,2.88311 1.80463,5.12143 v 9.72407 h -2.125163 v 2.2877 H 1.80463 v 5.0876 z"
       fill="#808080"
       fill-rule="evenodd"
       transform="matrix(1,0,0,-1,1739,736)"
       id="path36" /><path
       d="m 1096.45,1124.46 62.05,-425.456 -755,-22.504 242.204,720 398.986,-196.75 51.76,-75.29"
       stroke="#ffd700"
       stroke-width="9.16667"
       stroke-linecap="square"
       stroke-linejoin="round"
       stroke-miterlimit="10"
       fill="none"
       fill-rule="evenodd"
       id="path37" /><path
       d="M 1096.55,1124 1062.24,995.02 416.41,685.5 l -12.91,886.37 774,35.63 -80.95,-483.5"
       stroke="#0000ff"
       stroke-width="9.16667"
       stroke-linecap="square"
       stroke-linejoin="round"
       stroke-miterlimit="10"
       fill="none"
       fill-rule="evenodd"
       id="path38" /><path
       d="m 1553.5,1124 -509.81,-72.5 -85.19,27.69 v 89.62 l 85.19,27.69 509.81,-72.5"
       stroke="#ff0000"
       stroke-width="9.16667"
       stroke-linecap="square"
       stroke-linejoin="round"
       stroke-miterlimit="10"
       fill="none"
       fill-rule="evenodd"
       id="path39" /><path
       d="m 1782.5,1124.5 -526.76,-725 -581.24,473.871 273.899,303.269 307.341,672.86 526.76,-725"
       stroke="#4b0082"
       stroke-width="9.16667"
       stroke-linecap="square"
       stroke-linejoin="round"
       stroke-miterlimit="10"
       fill="none"
       fill-rule="evenodd"
       id="path40" /><path
       d="m 1782,1123.5 c 0,-100.13 -19.72,-199.29 -58.04,-291.797 C 1685.64,739.197 1629.47,655.135 1558.67,584.331 1487.87,513.528 1403.8,457.36 1311.3,419.042 1218.79,380.724 1119.63,361 1019.5,361 919.369,361 820.21,380.724 727.703,419.042 635.197,457.36 551.135,513.528 480.331,584.331 409.528,655.135 353.36,739.197 315.042,831.703 276.724,924.21 257,1023.37 257,1123.5 c 0,100.13 19.724,199.29 58.042,291.8 38.318,92.5 94.486,176.57 165.289,247.37 70.804,70.8 154.866,126.97 247.372,165.29 92.507,38.32 191.666,58.04 291.797,58.04 100.13,0 199.29,-19.72 291.8,-58.04 92.5,-38.32 176.57,-94.49 247.37,-165.29 70.8,-70.8 126.97,-154.87 165.29,-247.37 38.32,-92.51 58.04,-191.67 58.04,-291.8"
       stroke="#000000"
       stroke-width="3.66667"
       stroke-linecap="square"
       stroke-miterlimit="8"
       fill="none"
       fill-rule="evenodd"
       id="path41" /><path
       d="m 2462.5,1995.5 h 74 74"
       stroke="#ffd700"
       stroke-width="9.16667"
       stroke-linecap="square"
       stroke-linejoin="round"
       stroke-miterlimit="10"
       fill="none"
       fill-rule="evenodd"
       id="path42" /><path
       d="m 2462.5,2104.5 h 74 74"
       stroke="#0000ff"
       stroke-width="9.16667"
       stroke-linecap="square"
       stroke-linejoin="round"
       stroke-miterlimit="10"
       fill="none"
       fill-rule="evenodd"
       id="path43" /><path
       d="m 2462.5,2213.5 h 74 74"
       stroke="#ff0000"
       stroke-width="9.16667"
       stroke-linecap="square"
       stroke-linejoin="round"
       stroke-miterlimit="10"
       fill="none"
       fill-rule="evenodd"
       id="path44" /><path
       d="m 2462.5,2322.5 h 74 74"
       stroke="#4b0082"
       stroke-width="9.16667"
       stroke-linecap="square"
       stroke-linejoin="round"
       stroke-miterlimit="10"
       fill="none"
       fill-rule="evenodd"
       id="path45" /><text
       font-family="'Book Antiqua', 'Book Antiqua_MSFontService', sans-serif"
       font-weight="700"
       font-size="110px"
       transform="translate(-47.8511,514)"
       id="text45">Distortion </text><text
       font-family="'Book Antiqua', 'Book Antiqua_MSFontService', sans-serif"
       font-weight="700"
       font-size="110px"
       transform="translate(22.6177,646)"
       id="text46">(PSNR)</text><text
       font-family="'Book Antiqua', 'Book Antiqua_MSFontService', sans-serif"
       font-weight="700"
       font-size="110px"
       transform="translate(1111.15,258)"
       id="text47">Compression </text><text
       font-family="'Book Antiqua', 'Book Antiqua_MSFontService', sans-serif"
       font-weight="700"
       font-size="110px"
       transform="translate(1309.68,390)"
       id="text48">Ratio</text><text
       font-family="'Book Antiqua', 'Book Antiqua_MSFontService', sans-serif"
       font-weight="700"
       font-size="110px"
       transform="translate(1784.79,1070)"
       id="text49">Dimension </text><text
       font-family="'Book Antiqua', 'Book Antiqua_MSFontService', sans-serif"
       font-weight="700"
       font-size="110px"
       transform="translate(1806.26,1202)"
       id="text50">Reduction</text><text
       font-family="'Book Antiqua', 'Book Antiqua_MSFontService', sans-serif"
       font-weight="700"
       font-size="110px"
       transform="translate(1098.59,1991)"
       id="text51">Throughput</text><text
       font-family="'Book Antiqua', 'Book Antiqua_MSFontService', sans-serif"
       font-weight="700"
       font-size="110px"
       transform="translate(1070.24,2123)"
       id="text52">(</text><text
       font-family="'Book Antiqua', 'Book Antiqua_MSFontService', sans-serif"
       font-weight="700"
       font-size="110px"
       transform="translate(1106.91,2123)"
       id="text53">MPixels</text><text
       font-family="'Book Antiqua', 'Book Antiqua_MSFontService', sans-serif"
       font-weight="700"
       font-size="110px"
       transform="translate(1515.97,2123)"
       id="text54">/sec)</text><text
       font-family="'Book Antiqua', 'Book Antiqua_MSFontService', sans-serif"
       font-weight="700"
       font-size="110px"
       transform="translate(-150.218,1638)"
       id="text55">Perceptual </text><text
       font-family="'Book Antiqua', 'Book Antiqua_MSFontService', sans-serif"
       font-weight="700"
       font-size="110px"
       transform="translate(-77.1822,1770)"
       id="text56">Quality </text><text
       font-family="'Book Antiqua', 'Book Antiqua_MSFontService', sans-serif"
       font-weight="700"
       font-size="110px"
       transform="translate(-92.3531,1902)"
       id="text57">(DISTS)</text><text
       font-family="'Book Antiqua', 'Book Antiqua_MSFontService', sans-serif"
       font-weight="700"
       font-size="110px"
       transform="translate(2356.85,561)"
       id="text58">Distortion </text><text
       font-family="'Book Antiqua', 'Book Antiqua_MSFontService', sans-serif"
       font-weight="700"
       font-size="110px"
       transform="translate(2460.82,693)"
       id="text59">(SDR)</text><text
       font-family="'Book Antiqua', 'Book Antiqua_MSFontService', sans-serif"
       font-weight="700"
       font-size="110px"
       transform="translate(3500.85,264)"
       id="text60">Compression </text><text
       font-family="'Book Antiqua', 'Book Antiqua_MSFontService', sans-serif"
       font-weight="700"
       font-size="110px"
       transform="translate(3699.35,396)"
       id="text61">Ratio</text><text
       font-family="'Book Antiqua', 'Book Antiqua_MSFontService', sans-serif"
       font-weight="700"
       font-size="110px"
       transform="translate(4192.66,1089)"
       id="text62">Dimension </text><text
       font-family="'Book Antiqua', 'Book Antiqua_MSFontService', sans-serif"
       font-weight="700"
       font-size="110px"
       transform="translate(4214.13,1221)"
       id="text63">Reduction</text><text
       font-family="'Book Antiqua', 'Book Antiqua_MSFontService', sans-serif"
       font-weight="700"
       font-size="110px"
       transform="translate(3528.8,1991)"
       id="text64">Throughput</text><text
       font-family="'Book Antiqua', 'Book Antiqua_MSFontService', sans-serif"
       font-weight="700"
       font-size="110px"
       transform="translate(3436.26,2123)"
       id="text65">(</text><text
       font-family="'Book Antiqua', 'Book Antiqua_MSFontService', sans-serif"
       font-weight="700"
       font-size="110px"
       transform="translate(3472.93,2123)"
       id="text66">MSamples</text><text
       font-family="'Book Antiqua', 'Book Antiqua_MSFontService', sans-serif"
       font-weight="700"
       font-size="110px"
       transform="translate(4010.32,2123)"
       id="text67">/sec)</text><text
       font-family="'Book Antiqua', 'Book Antiqua_MSFontService', sans-serif"
       font-weight="700"
       font-size="110px"
       transform="translate(2409.61,1604)"
       id="text68">Spatial</text><text
       font-family="'Book Antiqua', 'Book Antiqua_MSFontService', sans-serif"
       font-weight="700"
       font-size="110px"
       transform="translate(2394.14,1736)"
       id="text69">Quality</text><text
       font-family="'Book Antiqua', 'Book Antiqua_MSFontService', sans-serif"
       font-weight="700"
       font-size="110px"
       transform="translate(2397.3,1868)"
       id="text70">(SSDR)</text><path
       d="m 4179,1123.5 c 0,-100.13 -19.72,-199.29 -58.04,-291.797 C 4082.64,739.197 4026.47,655.135 3955.67,584.331 3884.87,513.528 3800.8,457.36 3708.3,419.042 3615.79,380.724 3516.63,361 3416.5,361 c -100.13,0 -199.29,19.724 -291.8,58.042 -92.5,38.318 -176.57,94.486 -247.37,165.289 -70.8,70.804 -126.97,154.866 -165.29,247.372 -38.32,92.507 -58.04,191.667 -58.04,291.797 0,100.13 19.72,199.29 58.04,291.8 38.32,92.5 94.49,176.57 165.29,247.37 70.8,70.8 154.87,126.97 247.37,165.29 92.51,38.32 191.67,58.04 291.8,58.04 100.13,0 199.29,-19.72 291.8,-58.04 92.5,-38.32 176.57,-94.49 247.37,-165.29 70.8,-70.8 126.97,-154.87 165.29,-247.37 38.32,-92.51 58.04,-191.67 58.04,-291.8 m -762.5,0 c 0,0 0,0 0,0 0,0 0,0 0,0 0,0 0,0 0,0 0,0 0,0 0,0 0,0 0,0 0,0 0,0 0,0 0,0 0,0 0,0 0,0 0,0 0,0 0,0 0,0 0,0 0,0 0,0 0,0 0,0 0,0 0,0 0,0 0,0 0,0 0,0 0,0 0,0 0,0 0,0 0,0 0,0 z"
       fill="#ffffff"
       fill-rule="evenodd"
       id="path70" /><path
       d="M 3493.09,1124.33 3440.45,1051.87 2800.5,676.5 v 895.65 l 776,43.35 z"
       stroke="#0000ff"
       stroke-width="4.58333"
       stroke-miterlimit="8"
       stroke-opacity="0.25098"
       fill="#0000ff"
       fill-rule="evenodd"
       fill-opacity="0.25098"
       id="path71" /><path
       d="M 3507.24,1124.35 3652.5,399.5 3135.21,919.704 3134.5,1329.5 3444.77,1210.03 Z"
       stroke="#ffd700"
       stroke-width="4.58333"
       stroke-miterlimit="8"
       stroke-opacity="0.25098"
       fill="#ffd700"
       fill-rule="evenodd"
       fill-opacity="0.25098"
       id="path72" /><path
       d="m 3859.5,1124.4 -257.37,-568.9 -461.63,367.74 0.71,401.8 511.67,524.46 z"
       stroke="#4b0082"
       stroke-width="4.58333"
       stroke-miterlimit="8"
       stroke-opacity="0.25098"
       fill="#4b0082"
       fill-rule="evenodd"
       fill-opacity="0.25098"
       id="path73" /><path
       d="M 4179.5,1123.99 3579.78,623.5 3355.5,1079.18 v 89.62 l 85.23,27.7 z"
       stroke="#ff0000"
       stroke-width="4.58333"
       stroke-miterlimit="8"
       stroke-opacity="0.25098"
       fill="#ff0000"
       fill-rule="evenodd"
       fill-opacity="0.25098"
       id="path74" /><path
       d="m 3569,1123.5 c 0,-20.03 -3.94,-39.86 -11.61,-58.36 -7.66,-18.5 -18.89,-35.31 -33.06,-49.47 -14.16,-14.16 -30.97,-25.396 -49.47,-33.062 -18.5,-7.665 -38.33,-11.608 -58.36,-11.608 -20.03,0 -39.86,3.943 -58.36,11.608 -18.5,7.666 -35.31,18.902 -49.47,33.062 -14.16,14.16 -25.4,30.97 -33.06,49.47 -7.67,18.5 -11.61,38.33 -11.61,58.36 0,20.03 3.94,39.86 11.61,58.36 7.66,18.5 18.9,35.31 33.06,49.47 14.16,14.16 30.97,25.4 49.47,33.06 18.5,7.67 38.33,11.61 58.36,11.61 20.03,0 39.86,-3.94 58.36,-11.61 18.5,-7.66 35.31,-18.9 49.47,-33.06 14.17,-14.16 25.4,-30.97 33.06,-49.47 7.67,-18.5 11.61,-38.33 11.61,-58.36"
       stroke="#b0b0b0"
       stroke-width="3.66667"
       stroke-linecap="square"
       stroke-linejoin="round"
       stroke-miterlimit="10"
       fill="none"
       fill-rule="evenodd"
       id="path75" /><path
       d="M -1.02938,23.2091 H 2.09836 L 6.91547,2.92308 11.7177,23.2091 h 3.4862 L 20.021,2.92308 24.8233,23.2091 h 3.1475 L 22.2159,-0.790572 H 18.3172 L 13.4852,20.0409 8.60448,-0.790572 H 4.70576 Z"
       fill="#808080"
       fill-rule="evenodd"
       transform="matrix(1,0,0,-1,3550,1041)"
       id="path76" /><path
       d="m 7.38794,15.0686 c -1.53401,0 -2.74717,-0.5892 -3.64019,-1.7683 C 2.85473,12.1216 2.40804,10.507 2.40804,8.45657 c 0,-2.05076 0.4431,-3.66535 1.32967,-4.84411 0.88979,-1.17877 2.10654,-1.76833 3.65023,-1.76833 1.52721,0 2.73536,0.59097 3.62516,1.77326 0.893,1.18511 1.3397,2.79829 1.3397,4.83918 0,2.03103 -0.4467,3.64063 -1.3397,4.82933 -0.8898,1.1886 -2.09795,1.7827 -3.62516,1.7827 z m 0,2.3854 c 2.48978,0 4.44506,-0.7969 5.86616,-2.3903 1.4243,-1.5902 2.1363,-3.7926 2.1363,-6.60713 0,-2.80499 -0.712,-5.00737 -2.1363,-6.6075 -1.4211,-1.596604 -3.37638,-2.394905 -5.86616,-2.394905 -2.49981,0 -4.45865,0.798301 -5.87615,2.394905 -1.4142783,1.60013 -2.121596,3.80251 -2.121596,6.6075 0,2.81453 0.7073177,5.01693 2.121596,6.60713 1.4175,1.5934 3.37634,2.3903 5.87615,2.3903 z"
       fill="#808080"
       fill-rule="evenodd"
       transform="matrix(1,0,0,-1,3580,1041)"
       id="path77" /><path
       d="m 9.52868,14.3047 c -0.31572,0.1877 -0.65882,0.3247 -1.02932,0.4118 -0.37085,0.0904 -0.77893,0.1356 -1.22458,0.1356 -1.587,0 -2.80491,-0.5307 -3.65372,-1.5919 C 2.77225,12.1986 2.34802,10.6736 2.34802,8.68465 V -0.576326 H -0.47164 V 17.0016 h 2.81966 v -2.7319 c 0.59174,1.068 1.35908,1.8598 2.30236,2.3754 0.94644,0.5188 2.09587,0.7784 3.44898,0.7784 0.19175,0 0.40491,-0.0133 0.6388,-0.0401 0.23424,-0.0235 0.49271,-0.0618 0.77577,-0.1153 z"
       fill="#808080"
       fill-rule="evenodd"
       transform="matrix(1,0,0,-1,3601,1041)"
       id="path78" /><path
       d="m 11.5898,16.538 v -2.6643 c -0.7872,0.4079 -1.60693,0.7133 -2.45883,0.9157 -0.84911,0.2059 -1.73041,0.3085 -2.64389,0.3085 -1.38649,0 -2.42662,-0.2137 -3.12004,-0.6414 -0.69307,-0.4277 -1.03978,-1.0712 -1.03978,-1.9298 0,-0.653 0.2477,-1.1657 0.74345,-1.5381 0.49575,-0.3723 1.49355,-0.7263 2.99374,-1.06272 L 7.02167,9.71044 c 1.98265,-0.42771 3.39223,-1.03208 4.22803,-1.8124 0.8358,-0.78032 1.2539,-1.86952 1.2539,-3.2669 0,-1.59343 -0.6255,-2.85541 -1.8759,-3.785942 -1.25078,-0.9273554 -2.96929,-1.391033 -5.15626,-1.391033 -0.91033,0 -1.85985,0.089562 -2.84785,0.269391 -0.988,0.1794771 -2.02813,0.447106 -3.12004,0.803238 V 3.43615 C 0.537033,2.8942 1.55442,2.48764 2.55572,2.21649 3.55666,1.94886 4.54956,1.81487 5.53442,1.81487 c 1.31547,0 2.32656,0.22708 3.03257,0.68088 0.70952,0.45381 1.06427,1.09379 1.06427,1.91994 0,0.7641 -0.25574,1.35014 -0.76759,1.75845 C 8.35498,6.58211 7.23403,6.97562 5.50048,7.35432 L 4.52857,7.58457 C 2.79852,7.95022 1.54813,8.51369 0.777036,9.27426 0.00909633,10.0352 -0.375049,11.0786 -0.375049,12.404 c 0,1.6132 0.567122,2.8572 1.701009,3.7323 1.1339,0.8784 2.7443,1.3177 4.83051,1.3177 1.03033,0 2.00084,-0.0768 2.91117,-0.2302 0.91348,-0.1502 1.75416,-0.3787 2.52216,-0.6858 z"
       fill="#808080"
       fill-rule="evenodd"
       transform="matrix(1,0,0,-1,3613,1041)"
       id="path79" /><path
       d="M 4.67601,22.2451 V 17.1579 H 10.6392 V 14.8702 H 4.67601 V 5.14612 c 0,-1.46053 0.19616,-2.39897 0.58921,-2.81495 C 5.65791,1.91483 6.45888,1.70665 7.66777,1.70665 H 10.6392 V -0.754951 H 7.66777 c -2.23648,0 -3.77932,0.422979 -4.62887,1.268937 C 2.18934,1.36363 1.76474,2.9078 1.76474,5.14612 v 9.72408 h -2.125521 v 2.2877 H 1.76474 v 5.0872 z"
       fill="#808080"
       fill-rule="evenodd"
       transform="matrix(1,0,0,-1,3629,1041)"
       id="path80" /><path
       d="m 3721,1124 c 0,-40.05 -7.89,-79.72 -23.22,-116.72 -15.32,-37.004 -37.79,-70.627 -66.11,-98.946 -28.32,-28.323 -61.95,-50.792 -98.95,-66.118 C 3495.72,826.89 3456.05,819 3416,819 c -40.05,0 -79.72,7.89 -116.72,23.216 -37,15.326 -70.63,37.795 -98.95,66.118 -28.32,28.319 -50.79,61.942 -66.11,98.946 -15.33,37 -23.22,76.67 -23.22,116.72 0,40.05 7.89,79.72 23.22,116.72 15.32,37 37.79,70.63 66.11,98.95 28.32,28.32 61.95,50.79 98.95,66.11 37,15.33 76.67,23.22 116.72,23.22 40.05,0 79.72,-7.89 116.72,-23.22 37,-15.32 70.63,-37.79 98.95,-66.11 28.32,-28.32 50.79,-61.95 66.11,-98.95 15.33,-37 23.22,-76.67 23.22,-116.72"
       stroke="#b0b0b0"
       stroke-width="3.66667"
       stroke-linecap="square"
       stroke-linejoin="round"
       stroke-miterlimit="10"
       fill="none"
       fill-rule="evenodd"
       id="path81" /><path
       d="M 3.23525,1.88494 H 14.3917 V -0.798062 H -0.608478 V 1.88494 C 0.603738,3.13805 2.25636,4.81893 4.3494,6.92757 6.44607,9.03949 7.76256,10.4021 8.29958,11.015 c 1.023,1.1454 1.73682,2.1156 2.14192,2.9103 0.4087,0.7952 0.6128,1.5765 0.6128,2.3444 0,1.2531 -0.4404,2.2738 -1.32157,3.062 -0.88118,0.7915 -2.02923,1.1873 -3.44379,1.1873 -1.00258,0 -2.06095,-0.1731 -3.17509,-0.5202 -1.11087,-0.347 -2.299386,-0.874 -3.565196,-1.5815 v 3.2235 c 1.286226,0.5154 2.488236,0.9046 3.605656,1.1673 1.12071,0.2626 2.14554,0.3939 3.07375,0.3939 2.44777,0 4.39934,-0.6111 5.85434,-1.834 1.4551,-1.2193 2.1827,-2.8496 2.1827,-4.891 0,-0.9701 -0.1822,-1.8896 -0.5468,-2.7586 C 13.357,12.8527 12.6953,11.8302 11.7332,10.6513 11.4696,10.3446 10.6307,9.46217 9.21613,8.00354 7.80485,6.54527 5.81135,4.50538 3.23525,1.88494 Z"
       fill="#808080"
       fill-rule="evenodd"
       transform="matrix(1,0,0,-1,3683,965)"
       id="path82" /><path
       d="M 0.388796,23.2351 H 13.522 V 20.551 H 3.45185 v -5.7668 c 0.48419,0.1584 0.96837,0.2761 1.45217,0.3535 0.48762,0.0773 0.97523,0.1158 1.46285,0.1158 2.75973,0 4.94483,-0.7199 6.55613,-2.1593 1.6147,-1.4394 2.422,-3.38877 2.422,-5.84736 0,-2.53269 -0.8287,-4.50203 -2.4857,-5.90803 -1.6571,-1.4027356 -3.99253,-2.104101 -7.00637,-2.104101 -1.03895,0 -2.09698,0.084265 -3.17485,0.252433 C 1.60402,-0.34469 0.492958,-0.0922563 -0.655497,0.24408 V 3.44762 C 0.337287,2.93295 1.36365,2.54976 2.42397,2.29733 3.4839,2.04526 4.60374,1.91886 5.78387,1.91886 c 1.91155,0 3.424,0.47762 4.53693,1.43288 1.1164,0.95525 1.6747,2.25374 1.6747,3.8951 0,1.63809 -0.5583,2.93476 -1.6747,3.88966 -1.11293,0.9589 -2.62538,1.438 -4.53693,1.438 -0.89397,0 -1.78602,-0.0941 -2.67617,-0.2826 C 2.2206,12.1037 1.31443,11.8092 0.388796,11.4093 Z"
       fill="#808080"
       fill-rule="evenodd"
       transform="matrix(1,0,0,-1,3703,965)"
       id="path83" /><path
       d="m 20.6055,9.8625 c -0.9106,0 -1.6259,-0.3819 -2.1448,-1.14533 -0.5157,-0.76343 -0.7735,-1.82773 -0.7735,-3.19256 0,-1.34198 0.2578,-2.39808 0.7735,-3.16829 0.5189,-0.76985 1.2342,-1.15496 2.1448,-1.15496 0.8911,0 1.5941,0.38511 2.1097,1.15496 0.5193,0.77021 0.779,1.82631 0.779,3.16829 0,1.35483 -0.2597,2.41593 -0.779,3.18257 -0.5156,0.77021 -1.2186,1.15532 -2.1097,1.15532 z m 0,1.968 c 1.6545,0 2.9672,-0.5682 3.9385,-1.7053 0.9742,-1.13356 1.4617,-2.66721 1.4617,-4.60059 0,-1.93017 -0.4889,-3.46238 -1.4668,-4.59593 -0.9778,-1.130334 -2.2891,-1.69568 -3.9334,-1.69568 -1.6743,0 -2.9986,0.565346 -3.9732,1.69568 -0.9713,1.13355 -1.4566,2.66576 -1.4566,4.59593 0,1.94338 0.4889,3.48023 1.4667,4.61059 0.9779,1.1303 2.2989,1.6953 3.9631,1.6953 z M 4.4057,21.2651 c -0.90081,0 -1.61068,-0.3851 -2.12962,-1.155 -0.51604,-0.767 -0.77388,-1.8227 -0.77388,-3.1679 0,-1.362 0.25639,-2.426 0.76882,-3.1929 0.51206,-0.7635 1.22374,-1.1454 2.13468,-1.1454 0.91094,0 1.62407,0.3819 2.14011,1.1454 0.51894,0.7669 0.77859,1.8309 0.77859,3.1929 0,1.332 -0.26146,2.3845 -0.78365,3.1579 -0.52255,0.7766 -1.23423,1.165 -2.13505,1.165 z m 14.1758,1.9683 H 21.093 L 6.43009,-0.767 h -2.5115 z m -14.1758,0 c 1.65445,0 2.97222,-0.5653 3.95331,-1.6957 C 9.34372,20.4074 9.8359,18.8755 9.8359,16.9422 9.8359,14.992 9.34698,13.4534 8.36914,12.3266 7.3913,11.1995 6.07027,10.6359 4.4057,10.6359 c -1.6642,0 -2.98053,0.565 -3.948242,1.6953 -0.967714,1.1339 -1.451571,2.6708 -1.451571,4.611 0,1.9234 0.485665,3.452 1.456634,4.5859 0.974589,1.1368 2.289099,1.7053 3.943179,1.7053 z"
       fill="#808080"
       fill-rule="evenodd"
       transform="matrix(1,0,0,-1,3723,965)"
       id="path84" /><path
       d="m 3874,1123.5 c 0,-60.08 -11.83,-119.57 -34.82,-175.079 -23,-55.505 -56.7,-105.939 -99.18,-148.424 -42.48,-42.481 -92.92,-76.181 -148.42,-99.173 C 3536.07,677.833 3476.58,666 3416.5,666 c -60.08,0 -119.57,11.833 -175.08,34.824 -55.5,22.992 -105.94,56.692 -148.42,99.173 -42.48,42.485 -76.18,92.919 -99.18,148.424 -22.99,55.509 -34.82,114.999 -34.82,175.079 0,60.08 11.83,119.57 34.82,175.08 23,55.5 56.7,105.94 99.18,148.42 42.48,42.48 92.92,76.18 148.42,99.18 55.51,22.99 115,34.82 175.08,34.82 60.08,0 119.57,-11.83 175.08,-34.82 55.5,-23 105.94,-56.7 148.42,-99.18 42.48,-42.48 76.18,-92.92 99.18,-148.42 22.99,-55.51 34.82,-115 34.82,-175.08"
       stroke="#b0b0b0"
       stroke-width="3.66667"
       stroke-linecap="square"
       stroke-linejoin="round"
       stroke-miterlimit="10"
       fill="none"
       fill-rule="evenodd"
       id="path85" /><path
       d="M 0.373081,23.2293 H 12.6855 V 20.5452 H 3.24505 v -5.7668 c 0.45356,0.158 0.90748,0.2757 1.36141,0.3531 0.45714,0.0773 0.91428,0.1162 1.37142,0.1162 2.58688,0 4.63582,-0.7199 6.14602,-2.1597 1.5138,-1.4394 2.2706,-3.38874 2.2706,-5.84734 0,-2.53269 -0.7765,-4.50203 -2.33,-5.90803 -1.5539,-1.402367 -3.74333,-2.103732 -6.5688,-2.103732 -0.97366,0 -1.96592,0.083902 -2.97606,0.25207 -1.00693,0.168168 -2.048907,0.4206011 -3.125225,0.756937 V 3.44145 C 0.325149,2.92714 1.28736,2.54358 2.28105,2.29115 c 0.99369,-0.25207 2.0439,-0.3781 3.15026,-0.3781 1.79208,0 3.20964,0.47762 4.25305,1.43287 1.04664,0.95526 1.56994,2.25338 1.56994,3.89474 0,1.6381 -0.5233,2.93474 -1.56994,3.89004 -1.04341,0.9585 -2.46097,1.4379 -4.25305,1.4379 -0.83809,0 -1.67475,-0.0944 -2.50926,-0.2825 -0.8313,-0.1885 -1.68119,-0.4827 -2.548969,-0.883 z"
       fill="#808080"
       fill-rule="evenodd"
       transform="matrix(1,0,0,-1,3815,889)"
       id="path86" /><path
       d="m 7.38343,21.6132 c -1.61084,0 -2.82308,-0.8265 -3.63671,-2.4791 C 2.9363,17.4853 2.53127,15.0029 2.53127,11.6873 2.53127,8.38554 2.9363,5.90873 3.74672,4.25616 4.56035,2.60359 5.77259,1.77712 7.38343,1.77712 c 1.62405,0 2.84097,0.82647 3.65137,2.47904 0.8136,1.65257 1.2204,4.12938 1.2204,7.43114 0,3.3156 -0.4068,5.798 -1.2204,7.4468 -0.8104,1.6526 -2.02732,2.4791 -3.65137,2.4791 z m 0,2.582 c 2.59627,0 4.57927,-1.0689 5.94867,-3.207 1.369,-2.1344 2.0537,-5.2347 2.0537,-9.3009 0,-4.05573 -0.6847,-7.1523 -2.0537,-9.29042 -1.3694,-2.134774 -3.3524,-3.201788 -5.94867,-3.201788 -2.59342,0 -4.57428,1.067014 -5.94368,3.201788 -1.3693874,2.13812 -2.054083,5.23469 -2.054083,9.29042 0,4.0662 0.6846956,7.1665 2.054083,9.3009 1.3694,2.1381 3.35026,3.207 5.94368,3.207 z"
       fill="#808080"
       fill-rule="evenodd"
       transform="matrix(1,0,0,-1,3835,889)"
       id="path87" /><path
       d="m 20.616,10.2671 c -0.9109,0 -1.6259,-0.39741 -2.1448,-1.19265 -0.5157,-0.79561 -0.7735,-1.90427 -0.7735,-3.32596 0,-1.3979 0.2578,-2.49763 0.7735,-3.29993 0.5189,-0.80231 1.2339,-1.20346 2.1448,-1.20346 0.8907,0 1.5941,0.40115 2.1097,1.20346 0.5193,0.8023 0.7786,1.90203 0.7786,3.29993 0,1.41166 -0.2593,2.51659 -0.7786,3.31555 -0.5156,0.80193 -1.219,1.20306 -2.1097,1.20306 z m 0,2.0504 c 1.6544,0 2.9672,-0.5922 3.9381,-1.7767 0.9746,-1.18082 1.4621,-2.77837 1.4621,-4.79231 0,-2.0106 -0.4889,-3.60628 -1.4668,-4.787434 -0.9778,-1.177433 -2.2891,-1.765964 -3.9334,-1.765964 -1.6743,0 -2.9986,0.588531 -3.9732,1.765964 -0.9713,1.181154 -1.457,2.776834 -1.457,4.787434 0,2.02435 0.4889,3.62525 1.4671,4.80271 0.9779,1.1774 2.2989,1.7663 3.9631,1.7663 z M 4.41619,22.1452 C 3.51538,22.1452 2.8055,21.744 2.28621,20.9417 1.77053,20.1431 1.51269,19.043 1.51269,17.6418 c 0,-1.4184 0.25639,-2.527 0.76845,-3.3256 0.51243,-0.7956 1.22411,-1.193 2.13505,-1.193 0.91094,0 1.62407,0.3974 2.13975,1.193 0.51929,0.7986 0.77858,1.9072 0.77858,3.3256 0,1.3875 -0.26109,2.4839 -0.78365,3.2895 -0.52218,0.8094 -1.23387,1.2139 -2.13468,1.2139 z m 14.17541,2.05 h 2.5119 L 6.44058,-0.804908 h -2.5115 z m -14.17541,0 c 1.65444,0 2.97221,-0.5885 3.95331,-1.766 0.98435,-1.1774 1.47688,-2.7735 1.47688,-4.7874 0,-2.0314 -0.48892,-3.6338 -1.46676,-4.8079 -0.97784,-1.1741 -2.29922,-1.7611 -3.96343,-1.7611 -1.66421,0 -2.98053,0.5889 -3.948245,1.7663 -0.967714,1.1808 -1.451571,2.7817 -1.451571,4.8027 0,2.0039 0.485304,3.5962 1.456634,4.777 0.974582,1.1841 2.288742,1.7764 3.943182,1.7764 z"
       fill="#808080"
       fill-rule="evenodd"
       transform="matrix(1,0,0,-1,3855,889)"
       id="path88" /><path
       d="m 4026,1123.5 c 0,-80.04 -15.77,-159.301 -46.39,-233.244 C 3948.97,816.308 3904.08,749.113 3847.48,692.518 3790.89,635.922 3723.69,591.026 3649.74,560.395 3575.8,529.766 3496.54,514 3416.5,514 c -80.04,0 -159.3,15.766 -233.24,46.395 -73.95,30.631 -141.15,75.527 -197.74,132.123 -56.6,56.595 -101.49,123.79 -132.12,197.738 -30.63,73.943 -46.4,153.204 -46.4,233.244 0,80.04 15.77,159.3 46.4,233.24 30.63,73.95 75.52,141.15 132.12,197.74 56.59,56.6 123.79,101.49 197.74,132.13 73.94,30.62 153.2,46.39 233.24,46.39 80.04,0 159.3,-15.77 233.24,-46.39 73.95,-30.64 141.15,-75.53 197.74,-132.13 56.6,-56.59 101.49,-123.79 132.13,-197.74 30.62,-73.94 46.39,-153.2 46.39,-233.24"
       stroke="#b0b0b0"
       stroke-width="3.66667"
       stroke-linecap="square"
       stroke-linejoin="round"
       stroke-miterlimit="10"
       fill="none"
       fill-rule="evenodd"
       id="path89" /><path
       d="M -0.606902,22.2246 H 14.3936 V 20.8989 L 5.92324,-0.775386 H 2.62811 L 10.5985,19.6022 H -0.606902 Z"
       fill="#808080"
       fill-rule="evenodd"
       transform="matrix(1,0,0,-1,3947,812)"
       id="path90" /><path
       d="M 0.410544,23.2232 H 13.5438 V 20.539 H 3.47398 v -5.7667 c 0.48419,0.158 0.96799,0.2756 1.45217,0.353 0.48762,0.0774 0.97523,0.1162 1.46285,0.1162 2.75935,0 4.9448,-0.7199 6.5561,-2.1593 1.6147,-1.4398 2.4221,-3.38875 2.4221,-5.84771 0,-2.53269 -0.8287,-4.50203 -2.4858,-5.90767 -1.6571,-1.4027316 -3.9925,-2.104097 -7.00672,-2.104097 -1.03857,0 -2.09699,0.084265 -3.17447,0.252433 -1.07406,0.168168 -2.185503,0.420238 -3.333578,0.756574 V 3.43564 C 0.359417,2.92096 1.38578,2.53741 2.44571,2.28534 3.50565,2.03291 4.62587,1.90687 5.806,1.90687 c 1.91155,0 3.42362,0.47763 4.5366,1.43288 1.1168,0.95525 1.675,2.25338 1.675,3.89474 0,1.63809 -0.5582,2.93481 -1.675,3.89001 -1.11298,0.9585 -2.62505,1.438 -4.5366,1.438 -0.89397,0 -1.78602,-0.0941 -2.67655,-0.2826 -0.88672,-0.1882 -1.79327,-0.4827 -2.718906,-0.883 z"
       fill="#808080"
       fill-rule="evenodd"
       transform="matrix(1,0,0,-1,3967,813)"
       id="path91" /><path
       d="m 20.6265,10.2612 c -0.911,0 -1.6259,-0.39783 -2.1448,-1.19307 -0.5157,-0.79524 -0.7735,-1.90389 -0.7735,-3.32596 0,-1.39753 0.2578,-2.49763 0.7735,-3.29994 0.5189,-0.80193 1.2338,-1.20308 2.1448,-1.20308 0.8907,0 1.594,0.40115 2.1097,1.20308 0.519,0.80231 0.7786,1.90241 0.7786,3.29994 0,1.41166 -0.2596,2.51696 -0.7786,3.31555 -0.5157,0.80231 -1.219,1.20348 -2.1097,1.20348 z m 0,2.05 c 1.6544,0 2.9671,-0.5923 3.9381,-1.7764 0.9746,-1.18114 1.4617,-2.77832 1.4617,-4.79263 0,-2.0106 -0.4886,-3.60628 -1.4668,-4.787062 -0.9778,-1.177434 -2.2887,-1.766336 -3.933,-1.766336 -1.6743,0 -2.999,0.588902 -3.9732,1.766336 -0.9713,1.180782 -1.457,2.776462 -1.457,4.787062 0,2.02435 0.4889,3.62562 1.4668,4.80303 0.9778,1.1775 2.2992,1.766 3.9634,1.766 z M 4.42668,22.1389 c -0.90082,0 -1.61105,-0.4012 -2.12999,-1.2031 -0.51568,-0.799 -0.77352,-1.8991 -0.77352,-3.3003 0,-1.4184 0.25604,-2.527 0.76846,-3.3256 0.51243,-0.7953 1.22411,-1.1931 2.13505,-1.1931 0.91094,0 1.62407,0.3978 2.13974,1.1931 0.5193,0.7986 0.77859,1.9072 0.77859,3.3256 0,1.3875 -0.2611,2.4842 -0.78365,3.2899 -0.52219,0.809 -1.23387,1.2135 -2.13468,1.2135 z m 14.17542,2.0503 h 2.5115 L 6.45107,-0.811228 H 3.9392 Z m -14.17542,0 c 1.65408,0 2.97185,-0.5889 3.9533,-1.7663 0.98435,-1.1774 1.47689,-2.7731 1.47689,-4.7874 0,-2.0311 -0.48892,-3.6338 -1.46712,-4.8079 -0.97784,-1.1737 -2.29886,-1.7608 -3.96307,-1.7608 -1.66457,0 -2.98053,0.5886 -3.948247,1.766 -0.968076,1.1811 -1.451933,2.782 -1.451933,4.8027 0,2.0039 0.485665,3.5962 1.456995,4.777 0.974225,1.1845 2.288735,1.7767 3.943185,1.7767 z"
       fill="#808080"
       fill-rule="evenodd"
       transform="matrix(1,0,0,-1,3987,813)"
       id="path92" /><path
       d="m 4179,1123.5 c 0,-100.13 -19.72,-199.29 -58.04,-291.797 C 4082.64,739.197 4026.47,655.135 3955.67,584.331 3884.87,513.528 3800.8,457.36 3708.3,419.042 3615.79,380.724 3516.63,361 3416.5,361 c -100.13,0 -199.29,19.724 -291.8,58.042 -92.5,38.318 -176.57,94.486 -247.37,165.289 -70.8,70.804 -126.97,154.866 -165.29,247.372 -38.32,92.507 -58.04,191.667 -58.04,291.797 0,100.13 19.72,199.29 58.04,291.8 38.32,92.5 94.49,176.57 165.29,247.37 70.8,70.8 154.87,126.97 247.37,165.29 92.51,38.32 191.67,58.04 291.8,58.04 100.13,0 199.29,-19.72 291.8,-58.04 92.5,-38.32 176.57,-94.49 247.37,-165.29 70.8,-70.8 126.97,-154.87 165.29,-247.37 38.32,-92.51 58.04,-191.67 58.04,-291.8"
       stroke="#b0b0b0"
       stroke-width="3.66667"
       stroke-linecap="square"
       stroke-linejoin="round"
       stroke-miterlimit="10"
       fill="none"
       fill-rule="evenodd"
       id="path93" /><path
       d="M 2.38383,10.6446 V 1.85408 h 4.89675 c 1.64049,0 2.85542,0.36178 3.64502,1.08534 0.7927,0.72356 1.1891,1.82964 1.1891,3.31786 0,1.50193 -0.3964,2.60763 -1.1891,3.31749 C 10.136,10.288 8.92107,10.6446 7.28058,10.6446 Z m 0,9.8706 V 13.2833 H 6.9037 c 1.48876,0 2.5975,0.2966 3.3255,0.8898 0.7315,0.5969 1.0976,1.5057 1.0976,2.7261 0,1.2105 -0.3661,2.1159 -1.0976,2.7162 -0.728,0.5999 -1.83674,0.8998 -3.3255,0.8998 z M -0.666427,23.185 H 7.13094 c 2.32641,0 4.11826,-0.5143 5.37526,-1.5434 1.2601,-1.0286 1.89,-2.4909 1.89,-4.3872 0,-1.4712 -0.3222,-2.6406 -0.9667,-3.5082 -0.6445,-0.8676 -1.5922,-1.4075 -2.8425,-1.6201 1.502,-0.3429 2.6685,-1.0598 3.4998,-2.14993 0.8314,-1.08719 1.2473,-2.44507 1.2473,-4.074 0,-2.14328 -0.6849,-3.79925 -2.0546,-4.968651 -1.3694,-1.166066 -3.31929,-1.748913 -5.84893,-1.748913 h -8.096997 z"
       fill="#808080"
       fill-rule="evenodd"
       transform="matrix(1,0,0,-1,4080,736)"
       id="path94" /><path
       d="M 16.3958,9.15297 V 7.77674 H 2.53979 C 2.67259,5.83705 3.29772,4.35963 4.41595,3.34412 5.53381,2.32861 7.09194,1.82086 9.09034,1.82086 c 1.15636,0 2.27796,0.13223 3.36446,0.39668 1.0866,0.26446 2.166,0.6629 3.2385,1.19499 V 0.748232 C 14.6102,0.32052 13.501,-0.00599431 12.3658,-0.23131 11.2302,-0.456626 10.0792,-0.56946 8.91227,-0.56946 c -2.928,0 -5.24595,0.795128 -6.95423,2.38538 -1.708287,1.59343 -2.562805,3.74857 -2.562805,6.46505 0,2.80503 0.810755,5.03033 2.431885,6.67593 1.62076,1.6491 3.80817,2.4735 6.56112,2.4735 2.46656,0 4.41786,-0.7429 5.85376,-2.2285 1.4359,-1.4823 2.1538,-3.4989 2.1538,-6.04893 z M 13.3822,9.98089 C 13.3614,11.5186 12.9004,12.7464 11.9987,13.6639 11.0974,14.5849 9.90449,15.045 8.41955,15.045 6.73919,15.045 5.39422,14.6011 4.38426,13.7129 3.37469,12.8247 2.79294,11.5743 2.63939,9.96114 Z"
       fill="#808080"
       fill-rule="evenodd"
       transform="matrix(1,0,0,-1,4100,736)"
       id="path95" /><path
       d="M 11.6289,16.5147 V 13.85 c -0.7872,0.4084 -1.6069,0.7137 -2.4592,0.9161 -0.84878,0.2056 -1.7301,0.3085 -2.6436,0.3085 -1.38688,0 -2.42669,-0.214 -3.12013,-0.6417 -0.69344,-0.4277 -1.04016,-1.0709 -1.04016,-1.9298 0,-0.653 0.24806,-1.1657 0.74382,-1.5377 C 3.60505,10.593 4.60322,10.2386 6.10311,9.90226 L 7.0607,9.68681 C 9.0434,9.2591 10.4527,8.65508 11.2889,7.87477 12.1247,7.09409 12.5424,6.00525 12.5424,4.60786 12.5424,3.01408 11.9172,1.7521 10.6668,0.821574 9.41601,-0.105782 7.69711,-0.56946 5.51043,-0.56946 c -0.91071,0 -1.8599,0.089915 -2.84793,0.269392 C 1.67412,-0.120592 0.634312,0.14739 -0.457628,0.50317 V 3.41253 C 0.575884,2.87057 1.5933,2.46402 2.59428,2.19286 3.5956,1.92523 4.58853,1.79124 5.57341,1.79124 c 1.3155,0 2.32627,0.22708 3.03266,0.68089 0.70953,0.4538 1.0643,1.09378 1.0643,1.91994 0,0.7641 -0.25611,1.35048 -0.76796,1.75845 C 8.3937,6.55884 7.27272,6.95235 5.53947,7.33105 L 4.56753,7.5613 C 2.83743,7.92695 1.58665,8.49007 0.815544,9.25099 0.047932,10.0116 -0.336224,11.0549 -0.336224,12.3807 c 0,1.6132 0.567137,2.8572 1.701064,3.7324 1.13392,0.8783 2.74402,1.3173 4.83063,1.3173 1.03037,0 2.0009,-0.0765 2.91126,-0.2302 0.91347,-0.1503 1.75427,-0.3787 2.52217,-0.6855 z"
       fill="#808080"
       fill-rule="evenodd"
       transform="matrix(1,0,0,-1,4120,736)"
       id="path96" /><path
       d="M 4.71589,22.2208 V 17.1332 H 10.6795 V 14.8455 H 4.71589 V 5.12143 c 0,-1.46016 0.19653,-2.3986 0.58922,-2.81494 C 5.69816,1.89014 6.49876,1.68197 7.70765,1.68197 H 10.6795 V -0.779637 H 7.70765 c -2.23611,0 -3.77895,0.422979 -4.62851,1.269305 C 2.22959,1.33931 1.80463,2.88311 1.80463,5.12143 v 9.72407 h -2.125163 v 2.2877 H 1.80463 v 5.0876 z"
       fill="#808080"
       fill-rule="evenodd"
       transform="matrix(1,0,0,-1,4136,736)"
       id="path97" /><path
       d="M 3493.09,1124.33 3440.45,1051.87 2800.5,676.5 v 895.65 l 776,43.35 -83.41,-491.17"
       stroke="#0000ff"
       stroke-width="9.16667"
       stroke-linecap="square"
       stroke-linejoin="round"
       stroke-miterlimit="10"
       fill="none"
       fill-rule="evenodd"
       id="path98" /><path
       d="m 3507.24,1124.35 145.26,-724.85 -517.29,520.204 -0.71,409.796 310.27,-119.47 62.47,-85.68"
       stroke="#ffd700"
       stroke-width="9.16667"
       stroke-linecap="square"
       stroke-linejoin="round"
       stroke-miterlimit="10"
       fill="none"
       fill-rule="evenodd"
       id="path99" /><path
       d="m 3859.5,1124.4 -257.37,-568.9 -461.63,367.74 0.71,401.8 511.67,524.46 206.62,-725.1"
       stroke="#4b0082"
       stroke-width="9.16667"
       stroke-linecap="square"
       stroke-linejoin="round"
       stroke-miterlimit="10"
       fill="none"
       fill-rule="evenodd"
       id="path100" /><path
       d="M 4179.5,1123.99 3579.78,623.5 3355.5,1079.18 v 89.62 l 85.23,27.7 738.77,-72.51"
       stroke="#ff0000"
       stroke-width="9.16667"
       stroke-linecap="square"
       stroke-linejoin="round"
       stroke-miterlimit="10"
       fill="none"
       fill-rule="evenodd"
       id="path101" /><path
       d="m 4179,1123.5 c 0,-100.13 -19.72,-199.29 -58.04,-291.797 C 4082.64,739.197 4026.47,655.135 3955.67,584.331 3884.87,513.528 3800.8,457.36 3708.3,419.042 3615.79,380.724 3516.63,361 3416.5,361 c -100.13,0 -199.29,19.724 -291.8,58.042 -92.5,38.318 -176.57,94.486 -247.37,165.289 -70.8,70.804 -126.97,154.866 -165.29,247.372 -38.32,92.507 -58.04,191.667 -58.04,291.797 0,100.13 19.72,199.29 58.04,291.8 38.32,92.5 94.49,176.57 165.29,247.37 70.8,70.8 154.87,126.97 247.37,165.29 92.51,38.32 191.67,58.04 291.8,58.04 100.13,0 199.29,-19.72 291.8,-58.04 92.5,-38.32 176.57,-94.49 247.37,-165.29 70.8,-70.8 126.97,-154.87 165.29,-247.37 38.32,-92.51 58.04,-191.67 58.04,-291.8"
       stroke="#000000"
       stroke-width="3.66667"
       stroke-linecap="square"
       stroke-miterlimit="8"
       fill="none"
       fill-rule="evenodd"
       id="path102" /><path
       d="m 3416,1124 h 763"
       stroke="#b0b0b0"
       stroke-width="3.66667"
       stroke-linecap="square"
       stroke-linejoin="round"
       stroke-miterlimit="10"
       fill="none"
       fill-rule="evenodd"
       id="path103" /><path
       d="M 3416,1124 3652,399"
       stroke="#b0b0b0"
       stroke-width="3.66667"
       stroke-linecap="square"
       stroke-linejoin="round"
       stroke-miterlimit="10"
       fill="none"
       fill-rule="evenodd"
       id="path104" /><path
       d="M 3416,1124 2800,676"
       stroke="#b0b0b0"
       stroke-width="3.66667"
       stroke-linecap="square"
       stroke-linejoin="round"
       stroke-miterlimit="10"
       fill="none"
       fill-rule="evenodd"
       id="path105" /><path
       d="m 3416,1124 -616,448"
       stroke="#b0b0b0"
       stroke-width="3.66667"
       stroke-linecap="square"
       stroke-linejoin="round"
       stroke-miterlimit="10"
       fill="none"
       fill-rule="evenodd"
       id="path106" /><path
       d="m 3416,1124 236,725"
       stroke="#b0b0b0"
       stroke-width="3.66667"
       stroke-linecap="square"
       stroke-linejoin="round"
       stroke-miterlimit="10"
       fill="none"
       fill-rule="evenodd"
       id="path107" /><text
       font-family="'Book Antiqua', 'Book Antiqua_MSFontService', sans-serif"
       font-weight="400"
       font-size="110px"
       transform="translate(2642.55,2359)"
       id="text107">WaLLoC 20</text><path
       d="m 3232.33,2297.83 24.33,24.28 24.33,-24.28 5.05,5 -24.06,24.49 24.12,24.38 -5.38,5.37 -24.06,-24.54 -24.81,24.33 -5,-5.05 24.55,-24.49 -24.44,-24.12 z"
       fill-rule="evenodd"
       id="path108" /><text
       fill="#000000"
       fill-opacity="0"
       font-family="Arial, Arial_MSFontService, sans-serif"
       font-size="59.2432px"
       x="3226.8501"
       y="2349.6699"
       id="text108"></text><text
       font-family="'Book Antiqua', 'Book Antiqua_MSFontService', sans-serif"
       font-weight="400"
       font-size="110px"
       transform="translate(2642.55,2248)"
       id="text109">Stable Audio</text><text
       font-family="'Book Antiqua', 'Book Antiqua_MSFontService', sans-serif"
       font-weight="400"
       font-size="110px"
       transform="translate(2642.55,2027)"
       id="text110">EnCodec</text><text
       font-family="'Book Antiqua', 'Book Antiqua_MSFontService', sans-serif"
       font-weight="400"
       font-size="110px"
       transform="translate(2642.55,2145)"
       id="text111">WaLLoC 5</text><path
       d="m 3177.33,2084.64 24.33,24.27 24.33,-24.27 5.05,4.99 -24.06,24.49 24.12,24.39 -5.38,5.37 -24.06,-24.55 -24.81,24.33 -5,-5.04 24.55,-24.5 -24.44,-24.11 z"
       fill-rule="evenodd"
       id="path111" /><text
       fill="#000000"
       fill-opacity="0"
       font-family="Arial, Arial_MSFontService, sans-serif"
       font-size="59.2432px"
       x="3171.8501"
       y="2136.47"
       id="text112"></text><path
       d="m 94.5,1994.5 h 74 74"
       stroke="#ffd700"
       stroke-width="9.16667"
       stroke-linecap="square"
       stroke-linejoin="round"
       stroke-miterlimit="10"
       fill="none"
       fill-rule="evenodd"
       id="path112" /><path
       d="m 94.5,2103.5 h 74 74"
       stroke="#0000ff"
       stroke-width="9.16667"
       stroke-linecap="square"
       stroke-linejoin="round"
       stroke-miterlimit="10"
       fill="none"
       fill-rule="evenodd"
       id="path113" /><path
       d="m 94.5,2211.5 h 74 74"
       stroke="#ff0000"
       stroke-width="9.16667"
       stroke-linecap="square"
       stroke-linejoin="round"
       stroke-miterlimit="10"
       fill="none"
       fill-rule="evenodd"
       id="path114" /><path
       d="m 94.5,2320.5 h 74 74"
       stroke="#4b0082"
       stroke-width="9.16667"
       stroke-linecap="square"
       stroke-linejoin="round"
       stroke-miterlimit="10"
       fill="none"
       fill-rule="evenodd"
       id="path115" /><text
       font-family="'Book Antiqua', 'Book Antiqua_MSFontService', sans-serif"
       font-weight="400"
       font-size="110px"
       transform="translate(274.527,2361)"
       id="text115">WaLLoC 16</text><path
       d="m 864.309,2299.97 24.331,24.27 24.331,-24.27 5.049,4.99 -24.063,24.49 24.116,24.39 -5.371,5.37 -24.062,-24.55 -24.815,24.34 -4.995,-5.05 24.546,-24.5 -24.438,-24.11 z"
       fill-rule="evenodd"
       id="path116" /><text
       fill="#000000"
       fill-opacity="0"
       font-family="Arial, Arial_MSFontService, sans-serif"
       font-size="59.2432px"
       x="858.83002"
       y="2351.8"
       id="text116"></text><text
       font-family="'Book Antiqua', 'Book Antiqua_MSFontService', sans-serif"
       font-weight="400"
       font-size="110px"
       transform="translate(274.527,2250)"
       id="text117">Stable Diff. 3</text><text
       font-family="'Book Antiqua', 'Book Antiqua_MSFontService', sans-serif"
       font-weight="400"
       font-size="110px"
       transform="translate(274.527,2036)"
       id="text118">Cheng2020</text><text
       font-family="'Book Antiqua', 'Book Antiqua_MSFontService', sans-serif"
       font-weight="400"
       font-size="110px"
       transform="translate(274.527,2141)"
       id="text119">WaLLoC 4</text><path
       d="m 809.309,2079.97 24.331,24.27 24.331,-24.27 5.049,4.99 -24.063,24.49 24.116,24.39 -5.371,5.37 -24.062,-24.55 -24.815,24.34 -4.995,-5.05 24.546,-24.5 -24.438,-24.11 z"
       fill-rule="evenodd"
       id="path119" /><text
       fill="#000000"
       fill-opacity="0"
       font-family="Arial, Arial_MSFontService, sans-serif"
       font-size="59.2432px"
       x="803.83002"
       y="2131.8"
       id="text120"></text></g></svg>
